<?xml version="1.0" encoding="UTF-8"?>
<svg id="_レイヤー_2" data-name="レイヤー 2" xmlns="http://www.w3.org/2000/svg" viewBox="0 0 266.89 186.67">
  <defs>
    <style>
      .cls-1 {
        fill: #e0e0df;
      }

      .cls-2 {
        fill: #fff;
      }

      .cls-3 {
        fill: none;
      }

      .cls-4 {
        fill: #4b8cca;
      }

      .cls-5 {
        fill: #6aa3d2;
      }

      .cls-6 {
        fill: #1b306f;
      }

      .cls-7 {
        fill: #f5eda2;
      }
    </style>
  </defs>
  <g id="_レイヤー_1-2" data-name="レイヤー 1">
    <path class="cls-2" d="M114.2,174.95c-3.29,0-5.53,0-6.08,0-3.36,0-2.87-3.91-2.43-4.88.45-.97,1.33-1.59,2.86-1.88,5.3-1.01,6.62-3.87,7.06-8.95.19-2.17.38-3.52.49-5.69.07-1.4.19-2.96.4-5.08,8.11,0,27.25,0,35.6,0,.21,2.12.33,3.68.4,5.08.11,2.17.3,3.52.49,5.69.44,5.07,1.75,7.94,7.06,8.95,1.53.29,2.41.91,2.86,1.88.45.97.94,4.88-2.43,4.88-1.39,0-13.67,0-26.18,0-7.57,0-15.06,0-20.1,0Z"/>
    <rect class="cls-2" x="47.53" y="35.83" width="173.46" height="112.65" rx="9.38" ry="9.38"/>
    <path class="cls-6" d="M211.61,146.92h-113.18c-9.64,0-19.27,0-28.91,0-4.19,0-8.38.06-12.56,0-3.18-.04-6.11-1.9-7.32-4.9-.48-1.18-.56-2.4-.56-3.65,0-2.64,0-5.27,0-7.91,0-10.86,0-21.73,0-32.59v-35.9c0-5.7-.22-11.44,0-17.14.16-4.18,3.7-7.41,7.82-7.47.28,0,.56,0,.83,0h152.72c.37,0,.74,0,1.11,0,3.29.05,6.32,2.05,7.42,5.21.69,1.99.44,4.36.44,6.43,0,9.42,0,18.84,0,28.25,0,12.42,0,24.84,0,37.26v23.47c0,.48.01.97,0,1.45-.16,4.19-3.7,7.4-7.82,7.47-2,.04-2,3.15,0,3.11,4.59-.08,8.63-2.87,10.26-7.18.54-1.42.67-2.92.67-4.43v-8.03c0-11,0-22.01,0-33.01v-48.31c0-2.23.2-4.67-.41-6.83-1.43-5.1-6.1-7.97-11.2-7.97h-5.74c-8.36,0-16.72,0-25.09,0-12,0-24,0-36,0-12.74,0-25.48,0-38.22,0h-48.24c-4.97,0-9.45,2.62-11.11,7.49-.77,2.27-.55,4.84-.55,7.21,0,9.63,0,19.27,0,28.9,0,12.52,0,25.03,0,37.55s0,15.31,0,22.96c0,1.35.09,2.7.5,4,1.39,4.34,5.36,7.38,9.9,7.63,1.15.06,2.31.02,3.46.02h93.84c11.33,0,22.66,0,33.99,0,7.03,0,14.05,0,21.08,0h2.86c2,0,2-3.11,0-3.11Z"/>
    <path class="cls-6" d="M114.89,149.06c-.23,2.44-.32,4.9-.56,7.34-.2,2.09-.26,4.27-.9,6.29-.45,1.44-1.33,2.54-2.69,3.21-1.88.93-4.15.74-5.69,2.36-2.12,2.24-1.6,6.97,1.53,8.01,1.05.35,2.25.24,3.34.24,1.76,0,3.53,0,5.29,0,11.46,0,22.91,0,34.37,0,3.49,0,6.98.02,10.48,0,1.54,0,3.04-.39,3.94-1.76.83-1.28.93-2.96.6-4.41-1.03-4.6-7.03-2.8-9.02-6.59-.98-1.87-1-4.14-1.21-6.19-.28-2.83-.41-5.66-.67-8.49-.19-1.97-3.3-1.99-3.11,0,.42,4.43.33,9.03,1.28,13.39.75,3.43,2.9,5.85,6.27,6.89,1.35.42,3.25.37,3.48,1.98.14.96.02,2.02-1.16,2.08-2.71.15-5.47,0-8.17,0-10.82,0-21.65,0-32.47,0-3.59,0-7.18,0-10.78,0-.74,0-1.65.18-1.99-.62s-.2-2.05.49-2.58c.83-.64,2.21-.63,3.19-.96.91-.31,1.8-.71,2.59-1.27,1.51-1.08,2.49-2.58,3.07-4.33.71-2.13.77-4.45.99-6.67.26-2.63.37-5.28.61-7.91.19-1.99-2.92-1.98-3.11,0h0Z"/>
    <path class="cls-6" d="M118.44,168.5h31.64c2,0,2-3.11,0-3.11h-31.64c-2,0-2,3.11,0,3.11h0Z"/>
    <path class="cls-6" d="M47.53,136h173.46c2,0,2-3.11,0-3.11H47.53c-2,0-2,3.11,0,3.11h0Z"/>
    <path class="cls-1" d="M155.18,69.7h-41.59c-.5,0-.91.41-.91.91v41.64c0,.5.41.91.91.91h41.64c.5,0,.91-.4.91-.9,0-5.6-.05-35.47-.05-41.65,0-.5-.41-.9-.91-.9Z"/>
    <path class="cls-6" d="M155.18,68.14c-11.85,0-23.7,0-35.55,0-1.92,0-3.84-.06-5.76,0-1.48.05-2.64.88-2.74,2.46-.02.36,0,.72,0,1.08,0,6.08,0,12.16,0,18.24v19.98c0,1.96-.31,4.62,2.46,4.8,1.33.09,2.69,0,4.01,0,7.09,0,14.18,0,21.27,0,5.35,0,10.73.18,16.08,0,1.54-.05,2.65-.94,2.74-2.55.06-1.1,0-2.22,0-3.32,0-3.96-.01-7.92-.02-11.88-.01-8.22-.02-16.44-.03-24.66,0-1.65.08-3.75-2.05-4.09-1.96-.31-2.8,2.68-.83,3-.77-.12-.06-.78-.24-.27-.03.09,0,.27,0,.37,0,.23,0,.46,0,.69,0,.68,0,1.36,0,2.04,0,1.72,0,3.43,0,5.15,0,4.25.01,8.51.02,12.76s.01,8.37.02,12.55c0,1.63,0,3.25,0,4.88,0,.55,0,1.1,0,1.66,0,.21-.05.49,0,.7.01.05-.04.29,0,.33.2.2.52-.57.64-.45-.13-.12-.99,0-1.16,0h-11.83c-7.09,0-14.18,0-21.27,0h-6.46c-.2,0-.48-.05-.68,0-.05.01-.14-.02-.19,0-.28.16.73.46.6.64.13-.17,0-.96,0-1.16,0-5.72,0-11.44,0-17.16v-22.4c0-.2.05-.48,0-.68-.01-.04.02-.13,0-.16-.2-.35.22,1.29-.64.58.15.12.89,0,1.07,0h2.78c12.27,0,24.55,0,36.82,0h.91c2,0,2-3.11,0-3.11Z"/>
    <path class="cls-5" d="M106.65,52.69l19.51,33.8c.88,1.52-.22,3.42-1.97,3.42h-39.02c-1.75,0-2.85-1.9-1.97-3.42l19.51-33.8c.88-1.52,3.07-1.52,3.95,0Z"/>
    <path class="cls-6" d="M105.31,53.47c4.29,7.44,8.59,14.87,12.88,22.31,2.06,3.57,4.13,7.15,6.19,10.72.4.69.99,1.64-.28,1.84-1.01.16-2.18,0-3.21,0-10.37,0-20.73,0-31.1,0-1.39,0-2.78.02-4.18,0-.91-.01-1.39-.51-.92-1.38,1.75-3.24,3.69-6.38,5.52-9.57,2.86-4.95,5.71-9.9,8.57-14.85l3.45-5.97c.57-.98,1.08-2.05,1.72-2.98.34-.49.93-.75,1.34-.13,1.1,1.66,3.8.1,2.68-1.57-1.77-2.66-5.23-2.35-6.8.3-.74,1.25-1.46,2.52-2.19,3.79l-8.58,14.86c-2.53,4.38-5.06,8.76-7.59,13.14-.65,1.13-1.52,2.31-1.51,3.67.02,2.14,1.78,3.7,3.84,3.8.26.01.53,0,.8,0,10.44,0,20.88,0,31.31,0h5.68c1.82,0,3.63-.19,4.61-2.04s.14-3.37-.75-4.91l-2.91-5.05c-5.18-8.98-10.36-17.95-15.55-26.93l-.36-.63c-1-1.73-3.69-.17-2.68,1.57Z"/>
    <path class="cls-2" d="M244.86,29.28c-1.92-.09-3.31.85-4.82,1.88-1.69,1.16-3.38,2.32-5.06,3.5-9.53,6.68-19.09,13.4-28.37,20.43-.08.06-.16.12-.24.19-1.06.81-1.29,2.3-.53,3.39l3.58,5.12c.76,1.09,2.24,1.38,3.36.67,9.38-6.01,18.56-12.52,27.54-19.09,2.69-1.97,5.47-3.93,8.01-6.1,2.04-1.75,2.58-4.9,1.15-7.23-1.04-1.7-2.8-2.66-4.63-2.74Z"/>
    <path class="cls-6" d="M244.86,27.72c-2.07-.02-3.77.85-5.44,1.98-2.02,1.37-4.02,2.77-6.01,4.17-4.04,2.83-8.08,5.67-12.1,8.54s-8.02,5.76-11.98,8.71c-.91.68-1.81,1.36-2.72,2.04-.82.62-1.74,1.19-2.25,2.12-.76,1.37-.61,3.01.24,4.29,1.08,1.64,2.23,3.25,3.38,4.84.85,1.17,1.97,1.95,3.46,1.98,2.1.04,4.14-1.88,5.8-2.97,8.25-5.42,16.27-11.17,24.25-16.99,2.08-1.52,4.17-3.02,6.19-4.62,1.75-1.39,3.36-2.77,3.94-5.03,1.15-4.56-2.2-8.69-6.75-9.05-1.99-.16-1.98,2.95,0,3.11,3.23.25,5,3.97,3.06,6.61-1.06,1.44-2.9,2.54-4.31,3.6-1.6,1.2-3.23,2.37-4.84,3.55-6.74,4.92-13.53,9.76-20.47,14.4-1.75,1.17-3.5,2.32-5.27,3.46-.91.59-1.72,1.21-2.4.34-1.1-1.4-2.06-2.94-3.08-4.4-.44-.62-.88-1.19-.25-1.88s1.66-1.27,2.42-1.84c.84-.63,1.69-1.26,2.53-1.88,3.38-2.5,6.79-4.97,10.22-7.42,3.82-2.73,7.66-5.43,11.5-8.12,1.89-1.32,3.77-2.64,5.67-3.95,1.59-1.09,3.19-2.49,5.21-2.47s2-3.09,0-3.11Z"/>
    <path class="cls-5" d="M203.66,73.07c2.74-1.91,6.15-5.27,4.55-8.86-.58-1.3-1.25-2.6-2.26-3.61-2.56-2.59-6.92-1.8-9.67.12-2.57,1.8-3.1,3.87-3.68,6.03-.71,2.64-1.61,3.47-3.55,5.55,2.28,1.08,5.34,2.65,7.92,2.7,2.24.05,4.78-.6,6.68-1.93Z"/>
    <path class="cls-6" d="M204.44,74.42c2.36-1.67,4.87-3.89,5.55-6.83.36-1.57.08-3.01-.58-4.45s-1.57-3.02-2.87-4.07c-4.8-3.89-12.45-.54-14.62,4.7-.54,1.3-.73,2.73-1.3,4.01-.6,1.35-1.68,2.37-2.67,3.44-.63.67-.63,1.99.31,2.44,2.58,1.22,5.23,2.61,8.12,2.88s5.76-.56,8.04-2.1c1.65-1.11.1-3.81-1.57-2.68-1.85,1.25-4.23,1.94-6.48,1.68s-4.49-1.48-6.55-2.46l.31,2.44c1.58-1.69,3.01-3.29,3.74-5.52s1.08-4.26,3.07-5.73c1.61-1.19,3.87-1.97,5.88-1.52,1.1.25,1.95.87,2.61,1.77s1.48,2.23,1.6,3.39c.27,2.5-2.38,4.67-4.18,5.95-1.62,1.15-.07,3.84,1.57,2.68Z"/>
    <path class="cls-2" d="M182.76,8.61c-11.22-5.34-26.12-3.91-34.04,7.4-5.98,8.54-5.82,19.84-2.04,27.9,4.08,8.69,16.86,17.38,26.36,11.95,2.2-1.26,3.3-3.26,3.4-5.78.07-1.61-.14-3.24.15-4.83.7-3.89,4.19-6.45,8.04-6.61,4.21-.17,7.75-.07,9.94-4.43,1.23-2.44,1.39-5.32.95-8.02-1.23-7.56-5.66-14.45-12.81-17.62"/>
    <path class="cls-6" d="M183.54,7.27c-9.67-4.53-21.79-4.52-30.54,2.1-9.82,7.43-12.85,21.14-8.82,32.52,1.87,5.28,5.41,9.63,9.96,12.85s10.29,5.23,15.82,3.98c2.65-.6,5.36-1.98,6.82-4.35.67-1.09,1.02-2.32,1.15-3.58.21-1.93-.21-3.93.31-5.82.72-2.6,3.13-4.39,5.76-4.73,2.46-.32,4.94-.02,7.3-.94,7-2.73,6.67-11.83,4.67-17.74-2.1-6.22-6.44-11.58-12.47-14.32-1.81-.82-3.39,1.86-1.57,2.68,4.8,2.18,8.45,6.11,10.48,10.96,1.03,2.47,1.76,5.22,1.78,7.91s-.75,5.68-3.06,7.15c-1.79,1.14-4.12,1.04-6.16,1.13-2.61.11-5.06.93-7.02,2.7s-2.94,4.29-3.06,6.92.45,5.61-2.04,7.45c-3.98,2.95-9.65,2.01-13.77-.05-4.4-2.2-8.32-5.76-10.65-10.12-5-9.36-3.58-22.23,3.88-29.88,7.66-7.86,20.04-8.64,29.66-4.13,1.8.84,3.38-1.83,1.57-2.68h0Z"/>
    <path class="cls-7" d="M164.02,24.13c-.06.36-.15.71-.28,1.04-.13.29-.28.56-.47.81-.18.21-.37.41-.59.59-.25.18-.51.33-.79.46-.33.13-.67.21-1.01.27-.43.05-.86.05-1.29,0-.34-.05-.68-.14-1-.27-.29-.13-.56-.29-.82-.47-.22-.18-.42-.38-.61-.61-.19-.26-.35-.53-.48-.82-.13-.33-.22-.68-.27-1.03-.04-.38-.05-.77,0-1.15.05-.35.15-.69.27-1.01.13-.29.29-.57.48-.83.2-.24.42-.46.66-.66.25-.19.52-.34.81-.47.34-.13.68-.22,1.04-.28.36-.04.73-.04,1.09,0,.35.05.7.15,1.03.28.29.13.56.29.82.48.24.19.45.41.65.65.19.26.35.54.48.83.13.33.22.67.28,1.02.04.39.03.79-.01,1.18Z"/>
    <path class="cls-2" d="M158.22,35.58c-.06.36-.15.71-.28,1.04-.13.29-.28.56-.47.81-.18.21-.37.41-.59.59-.25.18-.51.33-.79.46-.33.13-.67.21-1.01.27-.43.05-.86.05-1.29,0-.34-.05-.68-.14-1-.27-.29-.13-.56-.29-.82-.47-.22-.18-.42-.38-.61-.61-.19-.26-.35-.53-.48-.82-.13-.33-.22-.68-.27-1.03-.04-.38-.05-.77,0-1.15.05-.35.15-.69.27-1.01.13-.29.29-.57.48-.83.2-.24.42-.46.66-.66.25-.19.52-.34.81-.47.34-.13.68-.22,1.04-.28.36-.04.73-.04,1.09,0,.35.05.7.15,1.03.28.29.13.56.29.82.48.24.19.45.41.65.65.19.26.35.54.48.83.13.33.22.67.28,1.02.04.39.03.79-.01,1.18Z"/>
    <path class="cls-6" d="M162.52,23.72c-.03.18-.06.35-.11.53-.02.07-.04.13-.06.19-.01.04-.11.31-.04.13.06-.16-.02.04-.03.06-.04.08-.08.16-.13.23s-.09.15-.14.23c.13-.18.02-.03-.07.05-.07.07-.39.33-.15.16-.14.1-.3.18-.45.27-.02.01-.22.1-.05.03.18-.07-.08.02-.12.03-.17.05-.34.08-.51.13-.22.06.25,0,0,0-.09,0-.19.01-.29.01-.17,0-.33,0-.5,0-.08,0-.29-.05,0,0-.06-.01-.13-.03-.19-.04-.19-.04-.38-.1-.56-.16.28.1-.08-.05-.17-.1-.08-.04-.15-.1-.23-.14-.15-.08.03.03.05.05-.12-.11-.23-.23-.35-.34-.06-.06-.14-.21,0,.02-.05-.08-.1-.15-.15-.23s-.09-.16-.13-.24c-.04-.07-.09-.26,0,0-.05-.15-.1-.3-.13-.45-.03-.11-.07-.48-.05-.19-.01-.22-.02-.43-.02-.65,0-.05.02-.35,0-.14-.02.18,0-.03.01-.06.04-.17.09-.34.14-.51,0-.02.09-.22.02-.06-.08.18.05-.08.07-.12.03-.06.07-.12.1-.18.03-.05.28-.37.07-.13.1-.12.21-.23.32-.34.05-.05.1-.09.15-.13-.2.18-.05.04,0,0,.16-.09.31-.18.47-.26-.03.02-.23.07-.06.03.11-.03.21-.07.32-.1.09-.02.17-.04.26-.06.03,0,.25-.04.06-.02-.2.02.08,0,.13,0,.09,0,.18,0,.27,0,.11,0,.51.05.19,0,.17.03.35.07.52.12.09.03.17.05.25.08-.28-.09,0,0,.06.04.08.04.16.09.23.14.06.04.28.23.07.03.13.12.25.24.38.37.2.2.05.05,0,0,.07.09.13.19.18.29.03.06.07.12.1.18.19.34-.02-.14.03.06.05.19.11.38.16.57.02.08.01.27,0,0,0,.1.01.2.01.29,0,.25-.01.49-.04.74-.08.81.77,1.59,1.55,1.55.91-.04,1.47-.68,1.55-1.55.22-2.21-.83-4.44-2.87-5.44s-4.52-.68-6.17.84-2.13,3.98-1.33,6.02,2.85,3.38,5.11,3.35c1.27-.02,2.48-.41,3.47-1.22s1.53-1.93,1.73-3.13c.14-.8-.21-1.71-1.09-1.91-.75-.17-1.77.23-1.91,1.09Z"/>
    <path class="cls-6" d="M159.03,37.48c-.03.18-.06.35-.11.53-.02.07-.04.13-.06.19-.01.04-.11.31-.04.13.06-.16-.02.04-.03.06-.04.08-.08.16-.13.23s-.09.15-.14.23c.13-.18.02-.03-.07.05-.07.07-.39.33-.15.16-.14.1-.3.18-.45.27-.02.01-.22.1-.05.03.18-.07-.08.02-.12.03-.17.05-.34.08-.51.13-.22.06.25,0,0,0-.09,0-.19.01-.29.01-.17,0-.33,0-.5,0-.08,0-.29-.05,0,0-.06-.01-.13-.03-.19-.04-.19-.04-.38-.1-.56-.16.28.1-.08-.05-.17-.1-.08-.04-.15-.1-.23-.14-.15-.08.03.03.05.05-.12-.11-.23-.23-.35-.34-.06-.06-.14-.21,0,.02-.05-.08-.1-.15-.15-.23s-.09-.16-.13-.24c-.04-.07-.09-.26,0,0-.05-.15-.1-.3-.13-.45-.03-.11-.07-.48-.05-.19-.01-.22-.02-.43-.02-.65,0-.05.02-.35,0-.14-.02.18,0-.03.01-.06.04-.17.09-.34.14-.51,0-.02.09-.22.02-.06-.08.18.05-.08.07-.12.03-.06.07-.12.1-.18.03-.05.28-.37.07-.13.1-.12.21-.23.32-.34.05-.05.1-.09.15-.13-.2.18-.05.04,0,0,.16-.09.31-.18.47-.26-.03.02-.23.07-.06.03.11-.03.21-.07.32-.1.09-.02.17-.04.26-.06.03,0,.25-.04.06-.02-.2.02.08,0,.13,0,.09,0,.18,0,.27,0,.11,0,.51.05.19,0,.17.03.35.07.52.12.09.03.17.05.25.08-.28-.09,0,0,.06.04.08.04.16.09.23.14.06.04.28.23.07.03.13.12.25.24.38.37.2.2.05.05,0,0,.07.09.13.19.18.29.03.06.07.12.1.18.19.34-.02-.14.03.06.05.19.11.38.16.57.02.08.01.27,0,0,0,.1.01.2.01.29,0,.25-.01.49-.04.74-.08.81.77,1.59,1.55,1.55.91-.04,1.47-.68,1.55-1.55.22-2.21-.83-4.44-2.87-5.44s-4.52-.68-6.17.84-2.13,3.98-1.33,6.02,2.85,3.38,5.11,3.35c1.27-.02,2.48-.41,3.47-1.22s1.53-1.93,1.73-3.13c.14-.8-.21-1.71-1.09-1.91-.75-.17-1.77.23-1.91,1.09Z"/>
    <path class="cls-6" d="M175.63,19.1c-.03.18-.06.35-.11.53-.02.07-.04.13-.06.19-.01.04-.11.31-.04.13.06-.16-.02.04-.03.06-.04.08-.08.16-.13.23s-.09.15-.14.23c.13-.18.02-.03-.07.05-.07.07-.39.33-.15.16-.14.1-.3.18-.45.27-.02.01-.22.1-.05.03.18-.07-.08.02-.12.03-.17.05-.34.08-.51.13-.22.06.25,0,0,0-.09,0-.19.01-.29.01-.17,0-.33,0-.5,0-.08,0-.29-.05,0,0-.06-.01-.13-.03-.19-.04-.19-.04-.38-.1-.56-.16.28.1-.08-.05-.17-.1-.08-.04-.15-.1-.23-.14-.15-.08.03.03.05.05-.12-.11-.23-.23-.35-.34-.06-.06-.14-.21,0,.02-.05-.08-.1-.15-.15-.23s-.09-.16-.13-.24c-.04-.07-.09-.26,0,0-.05-.15-.1-.3-.13-.45-.03-.11-.07-.48-.05-.19-.01-.22-.02-.43-.02-.65,0-.05.02-.35,0-.14-.02.18,0-.03.01-.06.04-.17.09-.34.14-.51,0-.02.09-.22.02-.06-.08.18.05-.08.07-.12.03-.06.07-.12.1-.18.03-.05.28-.37.07-.13.1-.12.21-.23.32-.34.05-.05.1-.09.15-.13-.2.18-.05.04,0,0,.16-.09.31-.18.47-.26-.03.02-.23.07-.06.03.11-.03.21-.07.32-.1.09-.02.17-.04.26-.06.03,0,.25-.04.06-.02-.2.02.08,0,.13,0,.09,0,.18,0,.27,0,.11,0,.51.05.19,0,.17.03.35.07.52.12.09.03.17.05.25.08-.28-.09,0,0,.06.04.08.04.16.09.23.14.06.04.28.23.07.03.13.12.25.24.38.37.2.2.05.05,0,0,.07.09.13.19.18.29.03.06.07.12.1.18.19.34-.02-.14.03.06.05.19.11.38.16.57.02.08.01.27,0,0,0,.1.01.2.01.29,0,.25-.01.49-.04.74-.08.81.77,1.59,1.55,1.55.91-.04,1.47-.68,1.55-1.55.22-2.21-.83-4.44-2.87-5.44s-4.52-.68-6.17.84-2.13,3.98-1.33,6.02,2.85,3.38,5.11,3.35c1.27-.02,2.48-.41,3.47-1.22s1.53-1.93,1.73-3.13c.14-.8-.21-1.71-1.09-1.91-.75-.17-1.77.23-1.91,1.09Z"/>
    <path class="cls-7" d="M184.29,107.76c-.22,1.38-.54,2.73-.99,4.05-.19.57-.43,1.13-.69,1.67-.39.77-.82,1.52-1.3,2.24-.34.51-.72,1.01-1.13,1.46-.46.51-.94.99-1.45,1.45-.46.41-.95.79-1.47,1.13-.68.45-1.39.86-2.13,1.23-.54.27-1.11.51-1.69.7-1.27.43-2.57.74-3.9.95-2.01.23-4.04.23-6.05,0-1.3-.21-2.59-.52-3.84-.94-.57-.19-1.13-.43-1.68-.7-.78-.39-1.54-.83-2.27-1.31-.51-.34-.99-.71-1.45-1.12-.55-.49-1.07-1.01-1.56-1.56-.41-.45-.78-.94-1.12-1.45-.49-.74-.94-1.51-1.33-2.31-.27-.54-.5-1.1-.69-1.67-.44-1.3-.76-2.63-.98-3.98-.17-1.48-.21-2.98-.12-4.47.04-.61.12-1.23.24-1.83.26-1.32.63-2.6,1.12-3.85.5-1.11,1.09-2.17,1.77-3.18.33-.49.69-.96,1.08-1.41.58-.65,1.19-1.26,1.84-1.84.44-.39.92-.76,1.41-1.09.72-.48,1.48-.92,2.26-1.32.54-.27,1.1-.51,1.68-.71,1.31-.45,2.66-.78,4.03-.99,1.7-.18,3.42-.18,5.12,0,1.35.21,2.68.54,3.98.98.57.2,1.13.43,1.67.71.8.4,1.57.85,2.31,1.35.49.33.97.7,1.41,1.09.63.56,1.23,1.16,1.79,1.79.39.44.75.91,1.08,1.4.51.75.97,1.54,1.38,2.35.27.54.51,1.09.7,1.66.45,1.29.78,2.61.99,3.96.19,1.84.16,3.7-.05,5.54Z"/>
    <path class="cls-6" d="M182.79,107.34c-.58,3.47-1.77,6.78-4.27,9.34-2.31,2.36-5.28,3.71-8.5,4.32-6.78,1.28-14.23-1.19-17.78-7.33s-3.05-14.39,1.54-19.68,11.85-6.82,18.37-4.72c3.57,1.15,6.62,3.71,8.5,6.93,2.09,3.56,2.5,7.52,2.07,11.56-.21,1.99,2.9,1.97,3.11,0,.86-8.23-2.47-16.3-10-20.28-7.07-3.74-16.58-2.8-22.56,2.6s-7.95,14.79-4.98,22.58,10.81,11.94,18.92,11.71c4.44-.12,9-1.48,12.39-4.45s5.41-7.2,6.17-11.75c.33-1.96-2.67-2.8-3-.83Z"/>
    <path class="cls-4" d="M30.08,86.03c-3.18.32-5.13,3-4.84,5.88.32,3.22,2.79,5.22,5.92,4.9,3.25-.33,5.15-2.78,4.83-5.98-.29-2.9-2.75-5.12-5.91-4.8Z"/>
    <path class="cls-1" d="M26.04,50.51c.88-.44,1.78-.84,2.71-1.18l.31-.11c.49-.17.41-.15-.22.07.15-.09.48-.15.63-.19.53-.15,1.06-.28,1.59-.4.96-.21,1.94-.37,2.92-.47.27-.03.55-.04.82-.07.71-.08-1.21.03-.11,0,.55-.01,1.1-.02,1.64,0,.99.03,1.97.11,2.95.26.44.06,1.22.08,1.62.29-.08-.04-1.12-.28-.27-.05.3.08.59.16.89.24.89.26,1.76.56,2.61.91.47.19.94.4,1.4.62.18.09.37.2.55.27-1.15-.47-.27-.14,0,.02.8.46,1.58.95,2.33,1.49.42.3.82.61,1.22.93.16.13.32.26.47.39.12.1.23.2.35.3.26.23.16.13-.31-.29.35.15.83.8,1.1,1.08.28.3.56.6.83.91.68.78,1.29,1.6,1.89,2.44.47.68-.05-.11-.12-.2.2.25.35.55.51.82.23.37.45.74.67,1.11.7,1.18,1.42,2.34,2.17,3.49,1.28,1.95,2.75,3.67,4.58,5.14,4.08,3.29,9.9,4.52,14.99,3.37,2.39-.54,4.33-2.95,3.74-5.48s-2.91-4.31-5.48-3.74c-.49.11-.99.2-1.49.26-.04,0-.54,0-.6.05l.65-.04c-.15,0-.3,0-.45,0-.45,0-.91-.03-1.36-.09-.2-.02-.4-.05-.6-.08-.2-.03-.4-.07-.6-.11.68.16.85.19.49.1-.21-.07-2.74-.95-2.69-1.02.03-.05,1.03.6.28.12-.17-.11-.34-.21-.51-.32-.47-.31-.89-.66-1.33-1.01-.51-.42.81.84.09.06-.14-.16-.29-.31-.44-.47-.36-.4-.69-.81-1.01-1.24-.29-.39-.56-.78-.83-1.18-.39-.57.6.98.04.06-.17-.28-.34-.55-.51-.83-1.2-1.99-2.36-4.01-3.76-5.87-5.32-7.06-13.97-11.62-22.79-12.06-5.37-.26-10.8.83-15.62,3.23-2.19,1.09-3.41,3.99-2.2,6.25,1.18,2.21,3.9,3.37,6.25,2.2h0Z"/>
    <path class="cls-6" d="M30.08,84.47c-1.58.18-3.01.72-4.21,1.79-1.02.91-1.76,2.21-2.04,3.55-.59,2.84.5,5.91,2.95,7.53,2.3,1.51,5.72,1.4,7.95-.18,2.39-1.69,3.31-4.71,2.62-7.52-.8-3.26-3.95-5.46-7.28-5.16-.84.07-1.55.66-1.55,1.55,0,.78.71,1.63,1.55,1.55.31-.03.62-.04.93-.02.1,0,.2.01.3.02-.34-.04.13.03.16.04.23.05.46.13.68.2.41.13-.23-.15.14.06.12.07.25.13.36.2s.23.15.34.23c-.05-.04-.21-.19,0,0,.19.17.36.34.54.52.05.05.24.29.06.06.08.11.16.22.23.34.05.08.1.16.14.24.03.05.27.56.14.25.09.22.16.44.22.67.03.12.05.23.08.35.02.08.05.39.02.09.02.24.04.49.04.74,0,.14,0,.28-.02.43,0,.09-.02.19-.03.28.02-.16.02-.19,0-.07-.05.24-.1.48-.18.71-.03.08-.06.16-.09.25-.13.39.16-.25-.05.1-.11.18-.21.37-.32.55-.2.35.21-.21-.06.09-.08.09-.17.19-.26.28-.07.07-.54.46-.27.26-.19.14-.4.27-.61.38-.1.05-.2.1-.3.15.32-.15-.09.03-.14.05-.27.09-.55.15-.83.22-.45.11.17,0-.1.02-.12.01-.25.02-.37.03-.24.01-.48.01-.72,0-.05,0-.51-.07-.14,0-.11-.02-.22-.04-.34-.06-.26-.06-.52-.14-.77-.23-.23-.09.31.18-.05-.03-.11-.07-.23-.12-.34-.19-.07-.04-.14-.1-.22-.14-.35-.21.2.2-.1-.07-.16-.15-.32-.29-.47-.45-.03-.04-.3-.37-.09-.09-.08-.11-.15-.22-.22-.33-.12-.19-.22-.39-.32-.6.15.31-.04-.11-.05-.15-.05-.14-.09-.27-.13-.41-.06-.24-.12-.48-.15-.72.03.28,0-.04,0-.11-.01-.17-.01-.33,0-.5,0-.12.01-.23.02-.35.01-.12,0-.09-.01.07.01-.09.03-.18.05-.27.06-.27.14-.53.23-.79.14-.4-.15.24.06-.13.07-.12.13-.24.2-.36s.15-.23.22-.34c.23-.34-.19.17.1-.11.2-.2.38-.4.59-.57-.25.21.1-.07.13-.09.12-.08.24-.15.36-.22s.25-.13.39-.19c-.28.12.12-.03.18-.05.14-.05.29-.09.44-.12.06-.01.63-.1.36-.07.83-.09,1.55-.65,1.55-1.55,0-.77-.71-1.65-1.55-1.55Z"/>
    <path class="cls-6" d="M26.83,51.85c.97-.47,1.95-.89,2.96-1.25,1.86-.66,1.11-3.59-.83-3-.18.05-.36.12-.53.18l.83,3c.95-.39,2.05-.57,3.05-.76s2.09-.15,3.07-.4c1.82-.47,1.23-2.86-.41-3.05-.33-.04-.71.04-1.03.08-1.51.21-1.46,2.74,0,3,2.13.37,4.48-.23,6.56.54l.83-3c-.19-.06-.4-.12-.6-.15-1.95-.27-2.76,2.31-.83,3s3.63,1.15,5.41,1.99l1.2-2.84c-.39-.16-.46-.19-.21-.08l-1.2,2.84c-.07-.03.04-.02.21.1.56.4,1.19.71,1.76,1.1.85.58,1.65,1.21,2.43,1.88,1.53,1.33,3.45-.66,2.2-2.2-.11-.14-.33-.3-.44-.41l-1.88,2.44c.71.45,1.37,1.44,1.9,2.08.64.76,1.17,1.6,1.79,2.38,1.12,1.38,3.37-.41,2.44-1.88-.1-.16-.21-.31-.31-.47-1.15-1.61-3.83-.08-2.68,1.57,2.19,3.15,3.77,6.61,6.51,9.37,2.55,2.57,5.75,4.4,9.28,5.21,3.2.74,7.38,1.03,10.4-.51s4.33-5.37,2.67-8.43c-.81-1.5-2.26-2.71-3.91-3.16-1.53-.41-3.42-.1-4.94.27-1.68.41-1.36,3.16.41,3.05l.65-.04c1.98-.11,2.02-3.11,0-3.11-.88,0-1.74-.05-2.6-.22-1.94-.38-2.79,2.55-.83,3,.22.05.44.1.67.15,1.99.39,2.68-2.27.83-3-.38-.15-.78-.26-1.16-.4-.3-.11-.6-.22-.9-.33-.48-.18-.45-.35-.12.05l-1.51,2.6c-.41-.09,0,.03.18.14,1.71,1.05,3.25-1.61,1.57-2.68-.84-.54-1.68-1.41-2.61-1.74-1.63-.58-2.36,1.52-1.51,2.6.2.25.48.46.73.64,1.05.77,2.24-.31,2.34-1.34.08-.79-.77-1.45-1.24-1.98-.66-.76-1.16-1.63-1.81-2.4-1.19-1.43-3.17.39-2.44,1.88.08.17.2.34.31.49,1.22,1.61,3.47.28,2.68-1.57-.4-.95-1.11-1.84-1.64-2.72-.72-1.19-1.45-2.39-2.25-3.52-1.42-2.01-3.06-3.86-4.91-5.48-3.55-3.1-7.74-5.44-12.26-6.8-4.88-1.47-10.05-1.67-15.06-.79-2.64.46-5.19,1.28-7.63,2.37-2.07.92-3.74,2.25-4.41,4.51s.13,4.76,1.95,6.31c1.98,1.69,4.53,1.95,6.86.9,1.82-.82.24-3.5-1.57-2.68-1.4.63-3.01,0-3.86-1.21-.91-1.28-.54-3.03.61-4.04,1.48-1.31,3.96-1.93,5.83-2.45,2.1-.59,4.24-.95,6.42-1.07,7.8-.43,15.58,2.3,21.37,7.56,1.6,1.45,3.03,3.07,4.25,4.85.75,1.09,1.43,2.21,2.11,3.34.49.82,1.15,1.64,1.52,2.52l2.68-1.57c-.11-.15-.23-.32-.31-.49l-2.44,1.88c-.46-.55.32.49.4.61.29.4.59.79.89,1.18.41.51.89.97,1.29,1.48l-.46-1.1h0c.78-.43,1.56-.88,2.34-1.33.35.26,0-.01-.11-.16l-1.51,2.6c-.42-.15-.07.06.09.2.25.23.54.42.82.61.31.22.64.41.96.62l1.57-2.68c-.29-.18-.6-.38-.93-.46-1.58-.36-2.5,1.42-1.51,2.6.73.87,2.53,1.07,3.55,1.47l.83-3c-.22-.04-.45-.1-.67-.15l-.83,3c1.13.22,2.27.34,3.43.33v-3.11l-.65.04.41,3.05c-.35.09.69-.06.57-.05.39-.05.77-.12,1.16-.19.76-.14,1.38-.19,2.1.17,1.18.58,2.07,2.01,1.85,3.34-.55,3.42-5.68,3.18-8.2,2.87-3.44-.42-6.68-1.91-9.19-4.3-2.78-2.64-4.3-6.07-6.45-9.17l-2.68,1.57c.11.15.21.31.31.47l2.44-1.88c-1.18-1.45-2.52-3.8-4.32-4.94-1.48-.94-3.2,1.25-1.88,2.44.11.1.33.27.44.41l2.2-2.2c-1.7-1.48-3.63-3.1-5.77-3.88-1.64-.6-2.8,2.11-1.2,2.84.31.14.63.27.95.4,1.62.66,2.78-2.09,1.2-2.84-2.02-.96-4.07-1.56-6.16-2.31l-.83,3c.2.03.41.08.6.15,1.92.64,2.67-2.31.83-3-1.05-.39-2.39-.41-3.5-.51-.63-.05-1.26-.09-1.89-.09-.34,0-.69-.02-1.03,0-.14,0-.78-.05-.14.06v3c-.62.09.04.01.2.03l-.41-3.05c.41-.11.09-.02-.16,0-.35.03-.69.07-1.04.11-.63.08-1.25.17-1.88.29-1.01.19-2.1.37-3.05.76-1.8.73-1.11,3.64.83,3,.18-.06.36-.12.53-.18l-.83-3c-1.27.45-2.5.97-3.71,1.56-1.8.88-.22,3.56,1.57,2.68Z"/>
    <path class="cls-7" d="M219.74,117.3c.51-.58,1.04-1.14,1.59-1.69.25-.25.51-.5.77-.75.15-.14.3-.28.45-.42.38-.34.3-.27-.22.19-.05-.15,1.48-1.2,1.65-1.33.56-.42,1.13-.83,1.72-1.21s1.18-.74,1.79-1.08c.17-.1.35-.19.52-.28-.64.32-.73.37-.28.14.27-.13.54-.26.81-.38,1.32-.59,2.69-1.06,4.09-1.42.15-.04.29-.07.44-.11.5-.11.39-.09-.31.06.34-.19,1-.18,1.39-.25.81-.13,1.63-.23,2.45-.3,1.65-.15,3.29-.16,4.95-.12.54.02.47.02-.2-.01.18.01.35.02.53.04.41.03.82.07,1.23.12.82.09,1.64.21,2.45.35,1.74.3,3.46.73,5.15,1.26,1.08.34,2.65-.13,3.54-.73.96-.65,1.82-1.86,1.99-3.02.4-2.78-1.22-4.73-3.75-5.53-7.39-2.32-15.5-2.58-23.01-.67-6.6,1.68-12.38,5.9-16.86,10.92-1.65,1.85-1.53,5.08.45,6.67s4.91,1.52,6.67-.45h0Z"/>
    <path class="cls-7" d="M67.32,112.83c-3.15-.6-5.79,1.42-6.33,4.27-.61,3.19,1.19,5.81,4.29,6.41s5.75-1.2,6.35-4.37c.55-2.87-1.18-5.71-4.31-6.31Z"/>
    <path class="cls-6" d="M67.74,111.34c-2.98-.53-6.04.65-7.52,3.39-1.39,2.57-1.15,5.83.75,8.07,1.78,2.1,5.11,2.94,7.7,2.05,2.78-.95,4.49-3.61,4.62-6.5.16-3.37-2.27-6.35-5.55-7.02-.82-.17-1.68.24-1.91,1.09-.21.77.26,1.74,1.09,1.91.31.06.6.15.9.24.04.01.28.11.04.01.13.06.26.13.39.2.21.12.41.24.6.39-.26-.2.09.09.12.12.1.09.2.19.29.3.03.03.31.38.11.11.05.07.11.15.16.22.14.21.26.43.37.66s-.1-.34.03.07c.04.13.09.26.13.39.02.09.05.18.07.27.02.09.04.18.05.27q-.02-.18,0,0c.01.24.03.47.02.7,0,.12-.01.24-.02.36-.03.27.09-.35-.02.09-.06.24-.1.48-.18.72-.04.14-.09.27-.14.41-.07.17-.07.17,0,.01-.03.06-.06.12-.09.19-.12.22-.25.42-.37.64-.03.05-.18.24,0,0-.08.1-.17.2-.25.29-.15.16-.3.3-.47.44.27-.23-.04.02-.09.06-.11.07-.21.14-.33.2s-.23.12-.34.17c.28-.13.08-.03.01-.01-.23.07-.46.13-.69.19-.08.02-.38.06-.05.02-.14.02-.27.03-.41.03-.29.01-.57,0-.86-.03.29.03-.03,0-.11-.02-.12-.02-.25-.05-.37-.08-.24-.06-.46-.13-.69-.21-.42-.14.24.14-.14-.06-.1-.05-.2-.1-.3-.16s-.2-.11-.29-.17c-.07-.05-.15-.1-.22-.15.12.1.14.11.05.04-.18-.15-.36-.32-.52-.49-.06-.06-.11-.13-.17-.2.23.27-.03-.06-.06-.1-.12-.18-.22-.37-.32-.57-.2-.36.07.28-.05-.11-.04-.13-.08-.25-.12-.38-.03-.1-.14-.73-.1-.39-.03-.28-.04-.57-.04-.85,0-.1,0-.2.02-.29,0-.03.07-.5.02-.18.05-.29.12-.57.21-.85,0,.02.15-.42.07-.21-.06.14.13-.27.16-.32.07-.12.14-.24.21-.36.04-.06.27-.38.08-.13.17-.22.36-.42.56-.6.03-.03.38-.31.11-.11.11-.08.22-.16.34-.23s.24-.14.36-.2c.03-.02.44-.19.13-.07.26-.1.53-.18.81-.24.04,0,.5-.07.16-.03.15-.01.29-.02.44-.03s.3,0,.45,0c.1,0,.21.01.31.03-.15-.02-.14-.02.06.02.83.15,1.67-.22,1.91-1.09.21-.75-.25-1.76-1.09-1.91Z"/>
    <path class="cls-6" d="M220.84,118.4c.97-1.07,1.97-2.1,3.04-3.07,1.49-1.35-.7-3.51-2.2-2.2-.15.13-.3.27-.46.41l2.6,1.51c-.3.88-.42.53-.03.3.13-.07.24-.18.36-.27.31-.23.63-.46.95-.69,1.18-.86,2.41-1.64,3.7-2.32,1.77-.95.21-3.57-1.57-2.68-.19.09-.37.19-.56.28-1.79.91-.22,3.55,1.57,2.68s3.62-1.5,5.55-1.96,1.12-3.4-.83-3c-.21.04-.41.09-.62.14l.83,3c1.24-.48,2.87-.46,4.17-.55,1.52-.1,3.04-.11,4.56-.05,2.01.08,1.98-2.97,0-3.11-.19-.01-.37-.02-.56-.03-2.01-.1-1.98,2.97,0,3.11,1.6.11,3.18.31,4.75.63,1.71.34,3.5,1.18,5.24,1.25,2.84.11,5.6-1.9,6.32-4.65.68-2.6-.44-5.29-2.62-6.78-1.16-.79-2.56-1.16-3.9-1.52-1.77-.47-3.56-.82-5.38-1.06-6.66-.91-13.9-.48-20.19,2.04-2.98,1.19-5.72,2.81-8.26,4.77-1.24.96-2.43,1.97-3.55,3.06-1.06,1.03-2.33,2.13-3.04,3.44-1.45,2.65-.88,6.16,1.56,8.01,2.64,1.99,6.27,1.67,8.55-.7,1.39-1.44-.81-3.64-2.2-2.2s-3.86,1.57-5.09-.19c-1.3-1.86-.03-3.66,1.27-5.01,3.37-3.52,7.4-6.56,11.97-8.34,4.91-1.91,10.38-2.45,15.61-2.12,2.75.17,5.48.63,8.14,1.35,1.8.49,3.98,1.12,4.19,3.31.11,1.16-.41,2.28-1.4,2.92-1.17.76-2.13.5-3.37.15-2.81-.8-5.71-1.28-8.62-1.48v3.11c.19,0,.37.02.56.03v-3.11c-1.68-.07-3.38-.05-5.06.09-1.4.11-3.19.12-4.51.62-1.84.71-1.16,3.44.83,3,.21-.05.41-.09.62-.14l-.83-3c-2.19.51-4.27,1.29-6.3,2.27l1.57,2.68c.19-.09.37-.19.56-.28l-1.57-2.68c-1.46.78-2.83,1.69-4.16,2.67-.82.6-1.89,1.16-2.24,2.17-.53,1.56,1.52,2.48,2.6,1.51.15-.14.3-.27.46-.41l-2.2-2.2c-1.07.97-2.08,1.99-3.04,3.07-1.34,1.48.86,3.69,2.2,2.2Z"/>
    <rect class="cls-3" width="266.89" height="186.67"/>
  </g>
</svg>