<?xml version="1.0" encoding="UTF-8"?>
<svg id="_レイヤー_2" data-name="レイヤー 2" xmlns="http://www.w3.org/2000/svg" viewBox="0 0 266.89 186.67">
  <defs>
    <style>
      .cls-1 {
        fill: #e0e0df;
      }

      .cls-2 {
        fill: #fff;
      }

      .cls-3 {
        fill: none;
      }

      .cls-4 {
        fill: #6aa3d2;
        stroke-width: 3px;
      }

      .cls-4, .cls-5 {
        stroke: #1b306f;
        stroke-linejoin: round;
      }

      .cls-5 {
        fill: #f5eda2;
        stroke-width: 3.2px;
      }

      .cls-6 {
        fill: #1b306f;
      }
    </style>
  </defs>
  <g id="_レイヤー_1-2" data-name="レイヤー 1">
    <g>
      <g>
        <path class="cls-1" d="M83.83,172.13c-.55,0-1.07-.28-1.37-.77l-5.4-8.9-10.15-.71-6.58,8.07c-.31.38-.77.59-1.24.59-.24,0-.49-.05-.71-.17l-12.64-6.3c-.67-.33-1.02-1.09-.84-1.81l2.48-10.11-6.67-7.68-10.36,1.05c-.05,0-.11,0-.16,0-.68,0-1.3-.43-1.52-1.09l-4.48-13.4c-.24-.71.05-1.49.69-1.88l8.9-5.4.71-10.15-8.07-6.58c-.58-.47-.75-1.28-.42-1.95l6.3-12.64c.28-.55.84-.89,1.43-.89.13,0,.25.02.38.05l10.11,2.48,7.68-6.67-1.05-10.36c-.08-.74.38-1.44,1.08-1.68l13.4-4.48c.17-.06.34-.08.51-.08.55,0,1.07.28,1.37.77l5.4,8.9,10.15.71,6.58-8.06c.31-.38.77-.59,1.24-.59.24,0,.49.05.71.17l12.64,6.3c.67.33,1.02,1.09.84,1.81l-2.48,10.11,6.67,7.68,10.36-1.05c.05,0,.11,0,.16,0,.68,0,1.3.43,1.52,1.09l4.48,13.4c.24.71-.05,1.49-.69,1.88l-8.9,5.4-.71,10.15,8.07,6.58c.58.47.75,1.28.42,1.95l-6.3,12.64c-.28.55-.84.89-1.43.89-.13,0-.25-.02-.38-.05l-10.11-2.48-7.68,6.68,1.05,10.36c.08.74-.38,1.44-1.08,1.68l-13.4,4.48c-.17.06-.34.08-.51.08Z"/>
        <path class="cls-6" d="M65.83,72.25l5.83,9.61c4.99.35,6.81.48,11.8.82l7.11-8.71c6.91,3.44,5.74,2.86,12.64,6.3l-2.68,10.92c3.28,3.77,4.48,5.15,7.76,8.93l11.18-1.13c2.45,7.32,2.03,6.08,4.48,13.4l-9.61,5.83c-.35,4.99-.48,6.81-.82,11.8l8.71,7.11c-3.44,6.91-2.86,5.74-6.3,12.64l-10.92-2.68c-3.77,3.28-5.15,4.48-8.93,7.76l1.13,11.18c-7.32,2.45-6.08,2.03-13.4,4.48l-5.83-9.61c-4.99-.35-6.81-.48-11.8-.82l-7.11,8.71c-6.91-3.44-5.74-2.86-12.64-6.3l2.68-10.92c-3.28-3.77-4.48-5.15-7.76-8.93l-11.18,1.13c-2.45-7.32-2.03-6.08-4.48-13.4l9.61-5.83c.35-4.99.48-6.81.82-11.8l-8.71-7.11c3.44-6.91,2.86-5.74,6.3-12.64l10.92,2.68c3.77-3.28,5.15-4.48,8.93-7.76l-1.13-11.18c7.32-2.45,6.08-2.03,13.4-4.48M65.83,69.05c-.34,0-.68.05-1.02.17l-4.41,1.48-8.99,3.01c-1.42.47-2.32,1.87-2.17,3.36l.96,9.53-3.77,3.28-2.65,2.31-9.31-2.28c-.25-.06-.51-.09-.76-.09-1.19,0-2.31.67-2.86,1.77l-3.15,6.32-3.15,6.32c-.67,1.34-.32,2.96.84,3.91l7.42,6.06-.41,5.84-.19,2.65-8.19,4.97c-1.28.78-1.85,2.33-1.38,3.75l3,8.95,1.49,4.45c.44,1.31,1.67,2.18,3.03,2.18.11,0,.22,0,.32-.02l9.53-.96,1.87,2.15,3.72,4.28-2.28,9.31c-.36,1.45.34,2.96,1.68,3.63l5.67,2.83,6.98,3.48c.46.23.94.34,1.43.34.94,0,1.86-.41,2.48-1.18l6.06-7.42,5.84.41,2.65.19,4.97,8.19c.59.98,1.64,1.54,2.74,1.54.34,0,.68-.05,1.02-.17l6.7-2.24,6.7-2.24c1.42-.47,2.32-1.87,2.17-3.36l-.96-9.53,6.43-5.59,9.31,2.28c.25.06.51.09.76.09,1.19,0,2.31-.67,2.86-1.77l3.15-6.32,3.15-6.32c.67-1.34.32-2.96-.84-3.91l-7.42-6.06.41-5.84.19-2.65,8.19-4.97c1.28-.78,1.85-2.33,1.38-3.75l-.23-.7-3.48-10.41-.77-2.29c-.44-1.31-1.67-2.18-3.03-2.18-.11,0-.22,0-.32.02l-9.53.96-2.79-3.21-2.79-3.21,2.28-9.31c.36-1.45-.34-2.96-1.68-3.63l-6.32-3.15-6.32-3.15c-.46-.23-.94-.34-1.43-.34-.94,0-1.86.41-2.48,1.18l-6.06,7.42-5.62-.39-2.87-.2-4.97-8.19c-.59-.98-1.64-1.54-2.74-1.54h0Z"/>
      </g>
      <g>
        <path class="cls-2" d="M74.82,139.73c-3.01,0-6.02-.76-8.68-2.2-8.9-4.8-12.24-15.94-7.44-24.84,3.2-5.95,9.39-9.64,16.16-9.64,3.01,0,6.02.76,8.68,2.2,4.31,2.32,7.46,6.19,8.87,10.88,1.41,4.69.9,9.65-1.42,13.96-3.2,5.95-9.39,9.64-16.16,9.64Z"/>
        <path class="cls-6" d="M74.85,104.65c2.68,0,5.4.65,7.93,2.01,8.14,4.39,11.18,14.54,6.79,22.67-3.02,5.61-8.79,8.8-14.75,8.8-2.68,0-5.4-.65-7.93-2.01-8.14-4.39-11.18-14.54-6.79-22.67,3.02-5.61,8.79-8.8,14.75-8.8M74.85,101.45h0c-7.35,0-14.08,4.02-17.56,10.48-5.22,9.68-1.59,21.79,8.09,27.01,2.9,1.56,6.17,2.39,9.44,2.39,7.35,0,14.08-4.02,17.56-10.48,5.22-9.68,1.59-21.79-8.09-27.01-2.9-1.56-6.17-2.39-9.44-2.39h0Z"/>
      </g>
    </g>
    <rect class="cls-3" width="266.89" height="186.67"/>
    <circle class="cls-5" cx="191.8" cy="114.21" r="51.62"/>
    <path class="cls-4" d="M160.92,67.21l12.91,4.28c-1.55,2.54-3.75,4.63-6.37,6.03-8.07,4.27-19.64,1.23-24.5-6.49-2-3.28-2.88-7.12-2.52-10.95l-32.62-10.81c-2,3.28-5,5.83-8.56,7.27-8.51,3.29-19.61-1.19-23.53-9.43-1.26-2.7-1.78-5.68-1.51-8.64l12.91,4.28,5.29-15.95-12.91-4.28c1.55-2.54,3.75-4.63,6.37-6.03,8.07-4.27,19.64-1.23,24.5,6.49,2,3.28,2.88,7.12,2.52,10.95l32.62,10.81c2-3.28,5-5.83,8.56-7.27,8.51-3.29,19.61,1.19,23.53,9.43,1.26,2.7,1.78,5.68,1.51,8.64l-12.92-4.28-5.29,15.95Z"/>
    <g>
      <g>
        <path class="cls-2" d="M170.23,119.08c-.07,0-.22-.01-.3-.02l-3.12-.49c-.59-.09-1.09-.47-1.35-1l-4.44-9.16-1.14,7.24c-.14.89-.89,1.53-1.79,1.53-.07,0-.21-.01-.28-.02l-4.29-.67c-.47-.08-.91-.34-1.19-.73-.29-.39-.4-.87-.32-1.35l3.41-21.64c.14-.89.89-1.53,1.79-1.53.06,0,.21.01.27.02l3.01.47c.59.09,1.09.47,1.35,1l4.54,9.38,1.17-7.43c.08-.49.34-.9.73-1.19.3-.22.67-.35,1.06-.35.07,0,.22.01.28.02l4.28.67c.99.15,1.66,1.08,1.51,2.07l-3.41,21.64c-.12.79-.74,1.4-1.54,1.51-.06,0-.19.02-.25.02Z"/>
        <path class="cls-6" d="M157.21,92.52s.05,0,.08,0l3,.47c.17.03.31.13.38.28l6.35,13.11,1.81-11.53c.02-.13.1-.26.21-.34.09-.06.19-.1.3-.1.03,0,.05,0,.08,0l4.28.67c.28.04.47.31.43.59l-3.41,21.64c-.04.23-.22.4-.44.43-.02,0-.05,0-.07,0-.03,0-.05,0-.08,0l-3.14-.49c-.17-.03-.31-.13-.38-.28l-6.25-12.9-1.78,11.34c-.04.25-.25.43-.51.43-.03,0-.05,0-.08,0l-4.28-.67c-.13-.02-.26-.1-.34-.21-.08-.11-.11-.25-.09-.38l3.41-21.64c.04-.25.26-.43.51-.43M157.21,89.92h0c-1.54,0-2.84,1.11-3.08,2.63l-3.41,21.64c-.13.83.07,1.65.56,2.32.49.67,1.21,1.11,2.03,1.24l4.29.68c.17.03.33.04.49.04,1.54,0,2.84-1.11,3.08-2.63l.49-3.13,2.63,5.43c.44.91,1.3,1.56,2.31,1.72l3.14.49c.17.03.33.04.48.04.15,0,.29-.01.43-.03,1.37-.19,2.43-1.24,2.65-2.6l3.41-21.64c.27-1.7-.9-3.3-2.59-3.56l-4.28-.67c-.16-.03-.33-.04-.49-.04-.67,0-1.31.21-1.84.61-.66.48-1.1,1.2-1.23,2.02l-.53,3.34-2.73-5.64c-.44-.91-1.3-1.56-2.31-1.72l-3.01-.47c-.17-.03-.33-.04-.48-.04h0Z"/>
      </g>
      <g>
        <path class="cls-2" d="M196.39,123.02c-.13,0-.27-.02-.4-.05l-16.57-3.72c-.97-.22-1.59-1.19-1.37-2.17l4.8-21.38c.11-.47.4-.89.81-1.14.28-.18.61-.28.96-.28.14,0,.28.02.41.05l16.4,3.68c.48.11.88.39,1.14.8.26.4.34.89.24,1.36l-.92,4.09c-.19.83-.92,1.42-1.77,1.42h0c-.13,0-.27-.01-.4-.04l-9.51-2.14-.19.85,8.53,1.91c.98.22,1.59,1.19,1.37,2.17l-.89,3.96c-.11.48-.4.88-.8,1.13-.29.19-.63.28-.97.28-.13,0-.26-.01-.39-.04l-8.53-1.92-.29,1.27,9.67,2.17c.47.11.88.39,1.13.8.26.41.34.9.24,1.37l-.93,4.12c-.18.79-.84,1.35-1.64,1.41-.03,0-.1,0-.13,0Z"/>
        <path class="cls-6" d="M184.61,95.59s.08,0,.11.01l16.41,3.69c.13.03.25.11.32.23.07.12.1.25.07.39l-.92,4.09c-.05.24-.26.4-.5.4-.04,0-.08,0-.12-.01l-10.78-2.42-.76,3.39,9.8,2.2c.28.06.45.34.39.62l-.89,3.97c-.03.13-.11.25-.23.32-.08.05-.18.08-.28.08-.04,0-.08,0-.11-.01l-9.8-2.2-.86,3.81,10.94,2.46c.13.03.25.11.32.23.07.12.1.25.07.39l-.92,4.12c-.05.23-.24.38-.46.4-.01,0-.03,0-.04,0-.04,0-.07,0-.11-.01l-16.58-3.72c-.28-.06-.45-.34-.39-.62l4.8-21.37c.03-.13.11-.25.23-.32.08-.05.18-.08.27-.08M184.61,92.99c-.59,0-1.17.17-1.67.49-.69.44-1.18,1.13-1.36,1.94l-4.8,21.38c-.37,1.68.68,3.35,2.36,3.72l16.58,3.72c.23.05.46.08.68.08.06,0,.17,0,.23,0,1.38-.1,2.51-1.08,2.81-2.42l.92-4.11c.18-.82.04-1.65-.41-2.35-.23-.36-.52-.66-.85-.89.61-.45,1.03-1.08,1.2-1.82l.89-3.97c.14-.65.08-1.3-.16-1.87,1.05-.32,1.88-1.18,2.13-2.3l.92-4.09c.18-.82.04-1.65-.41-2.35-.44-.7-1.13-1.19-1.94-1.37l-16.42-3.69c-.21-.05-.45-.08-.68-.08h0Z"/>
      </g>
      <g>
        <path class="cls-2" d="M217.7,134.13c-.13,0-.26-.01-.38-.04-.18-.04-.35-.1-.51-.19l-2.96-1.64c-.72-.4-1.08-1.23-.88-2.02l1.83-7.32-5.23,5.43c-.34.35-.81.56-1.31.56-.31,0-.62-.08-.89-.23l-2.96-1.64c-.71-.39-1.07-1.21-.89-2l5.13-22.2c.13-.55.51-1.02,1.03-1.25.24-.11.49-.16.75-.16.31,0,.62.08.89.23l3.76,2.08c.71.4,1.08,1.23.88,2.02l-1.77,7.25,5.15-5.37c.34-.35.81-.56,1.31-.56.31,0,.61.08.88.23l2.97,1.64c.72.4,1.08,1.23.88,2.03l-1.82,7.24,5.21-5.37c.34-.35.82-.55,1.3-.55.31,0,.61.08.88.23l3.74,2.07c.5.28.84.78.92,1.34.08.56-.11,1.13-.51,1.53l-16.1,16.13c-.34.34-.8.53-1.28.53Z"/>
        <path class="cls-6" d="M210.41,102.72c.09,0,.17.02.25.07l3.77,2.09c.2.11.31.35.25.57l-2.92,11.95,8.5-8.85c.1-.1.24-.16.37-.16.09,0,.17.02.25.06l2.97,1.65c.2.11.31.35.25.58l-3,11.94,8.58-8.86c.1-.1.23-.16.37-.16.09,0,.17.02.25.06l3.74,2.07c.14.08.24.22.26.38s-.03.32-.15.44l-16.1,16.13c-.1.1-.23.15-.36.15-.04,0-.07,0-.11-.01-.05-.01-.1-.03-.14-.05l-2.97-1.65c-.2-.11-.31-.35-.25-.57l3.01-12.04-8.61,8.94c-.1.1-.23.16-.37.16-.09,0-.17-.02-.25-.07l-2.97-1.65c-.2-.11-.3-.34-.25-.57l5.13-22.2c.04-.16.14-.29.29-.35.07-.03.14-.05.21-.05M210.41,100.12h0c-.44,0-.87.09-1.28.27-.88.39-1.54,1.19-1.76,2.14l-5.13,22.21c-.31,1.34.31,2.75,1.52,3.42l2.98,1.65c.45.25.98.39,1.51.39.85,0,1.67-.35,2.25-.97l1.85-1.92-.65,2.6c-.34,1.36.28,2.79,1.51,3.48l2.98,1.65c.26.15.55.26.86.32.21.05.43.07.65.07.83,0,1.62-.33,2.21-.92l16.09-16.13c.69-.69,1.01-1.67.88-2.63-.13-.96-.72-1.82-1.57-2.29l-3.75-2.07c-.45-.25-.98-.39-1.51-.39-.84,0-1.65.34-2.24.94l-1.83,1.89.64-2.53c.34-1.37-.28-2.8-1.51-3.48l-2.98-1.65c-.46-.25-.98-.39-1.51-.39-.84,0-1.66.35-2.25.96l-1.8,1.88.62-2.55c.33-1.36-.29-2.79-1.52-3.47l-3.77-2.09c-.44-.25-.97-.39-1.51-.39h0Z"/>
      </g>
    </g>
  </g>
</svg>