<?xml version="1.0" encoding="UTF-8"?>
<svg id="_レイヤー_2" data-name="レイヤー 2" xmlns="http://www.w3.org/2000/svg" viewBox="0 0 266.89 186.67">
  <defs>
    <style>
      .cls-1 {
        fill: #595757;
      }

      .cls-2 {
        fill: #fff;
      }

      .cls-3 {
        fill: none;
      }

      .cls-4 {
        fill: #dbdcdc;
      }

      .cls-5 {
        fill: #1b306f;
      }

      .cls-6 {
        fill: #83b9e4;
      }

      .cls-7 {
        fill: #f5eda2;
      }

      .cls-8 {
        fill: #c8c9ca;
      }
    </style>
  </defs>
  <g id="_レイヤー_1-2" data-name="レイヤー 1">
    <path class="cls-1" d="M25.59,120.43c.02-.26.04-.52.07-.77.22-1.68.72-3,1.39-4.12.75.74,2.03,1.26,3.21.96.78,2.64,2.19,5.84,4.67,8.8,1.72,2.06,3.52,3.65,5.49,4.72-.26,1.42-1.59,2.8-3.5,3.77-1.08.55-2.35.96-3.71,1.17-3.23.49-6.29-.23-8.27-1.45-.34-.21-.7-.46-.91-.8-.08-.12-.14-.26-.14-.4,0-.06.01-.29.08-.31,1.78-.6,2.27-2.44,2.18-4.31-.09-1.87-.57-3.79-.6-5.67,0-.57,0-1.1.04-1.59Z"/>
    <path class="cls-5" d="M25.61,115.47c-1.22,2.47-1.55,5.24-1.27,7.96.15,1.46.46,2.91.51,4.39.03.88-.03,2.01-.74,2.63-.41.36-.94.4-1.26.89s-.31,1.14-.1,1.67c.45,1.16,1.78,1.81,2.86,2.28,2.45,1.05,5.16,1.32,7.78.94,2.91-.43,5.85-1.75,7.58-4.2.96-1.36-1.28-2.66-2.24-1.31-1.46,2.08-4.48,2.96-6.89,3.08-1.28.06-2.54-.05-3.78-.38-.53-.14-1.06-.31-1.56-.54-.28-.13-.54-.27-.81-.43-.12-.07-.25-.15-.36-.23-.28-.36-.37-.22-.25.43l-.77.6c2.9-1.11,3.34-4.02,3.02-6.79-.38-3.27-1.01-6.58.52-9.67.74-1.49-1.5-2.8-2.24-1.31h0Z"/>
    <path class="cls-2" d="M8.12,164.1c.03-3.46.81-6.84,2.21-10.02,1.56-3.54,3.89-6.84,6.8-9.78,4.81-4.84,14.1-8.03,19.99-9.32.54-1.37,1.29-3.25,1.58-4.01.17-.43.69-.59,1.06-.31,2.24,1.68,5.68,4.28,9.81,6.89h1.62c2.85-2.33,8-6.15,9.96-7.71.38-.3.94-.12,1.08.34.4,1.33.82,2.61,1.49,4.94,5.9,1.38,14.74,4.51,19.39,9.19,2.99,3.01,5.36,6.41,6.92,10.05,1.33,3.1,2.06,6.38,2.09,9.75H8.12Z"/>
    <path class="cls-2" d="M71.08,103.86c.67-.64,1.57-.88,2.34-.86,1.68.06,2.39.97,2.7,1.5.92,1.59.88,4.51.26,6.33-.44,1.28-1.15,3.24-2.87,4.65-.71.58-1.75.96-2.75.79l-.26-.04c-.32,1.05-.71,2.07-.95,2.57-.65,1.76-4.01,7.6-8.39,10.51,0,.32,0,.54,0,.54-1.95,1.56-7.11,5.38-9.96,7.71h-1.62c-4.13-2.61-7.58-5.21-9.82-6.89,0,0,0-.63,0-1.3-1.72-1.06-3.3-2.51-4.83-4.34-2.48-2.96-3.89-6.16-4.67-8.8-1.06.27-2.21-.12-2.97-.74-1.72-1.41-2.43-3.37-2.87-4.65-.61-1.81-.65-4.74.26-6.33.31-.53,1.02-1.44,2.7-1.5.77-.03,1.67.21,2.34.86,0,0-4.56-20.98,21.24-20.98s20.12,20.98,20.12,20.98Z"/>
    <path class="cls-8" d="M79.04,164.61s0-11.76,0-22.98c-4.33-2.69-9.82-4.62-14.13-5.73,0,0-.05-.01-.14-.04-2.38,4.95-10.53,18.39-14.08,24.35h-.69c-3.56-5.98-11.77-19.6-14.07-24.46l-.12.03c-4.21,1.04-9.68,2.9-14.09,5.53,0,11.39,0,23.3,0,23.3"/>
    <path class="cls-1" d="M74.13,87.17c-.3-.92-.67-1.82-1.09-2.7-2.56-5.31-7.26-9.67-12.8-11.97-3.13-1.3-6.52-1.96-9.97-1.76-11.4-.63-22.28,7.95-24.49,18.76-.6,2.92-.53,7.9.02,10.23,0,0,.55,2.37.9,3.63.21-.04.43-.07.68-.08.77-.03,1.67.21,2.34.86l3.09-1.33c11.64-1.88,18.47-7.62,25.51-13.52.81,2.1,2.4,5.06,3.23,6.44,1.19,2,4.09,5.34,6.9,7.2l2.63,1.21c.67-.64,1.57-.88,2.34-.86.55.02,1,.13,1.36.29,1.5-4.18.65-10.73-.04-14.07-.08-.42-.19-.85-.3-1.27-.1-.36-.2-.72-.32-1.07Z"/>
    <path class="cls-5" d="M27.95,103.01c-1.33-4.83-1.94-9.95-.5-14.85,1.62-5.53,5.61-10.21,10.56-13.09,2.46-1.43,5.16-2.41,7.97-2.85,1.43-.22,2.84-.2,4.29-.19,1.84,0,3.6.02,5.41.4,6.35,1.34,12.06,5.43,15.35,11.03,1.75,2.98,2.6,6.25,3.01,9.65s.59,6.9-.5,10.11c-.54,1.58,1.96,2.26,2.5.69,1.05-3.09,1.01-6.52.71-9.73s-.88-6.52-2.21-9.55c-2.82-6.41-8.44-11.4-14.98-13.78-3.63-1.32-7.43-1.57-11.26-1.43-3.2.12-6.31.9-9.23,2.2-5.79,2.58-10.67,7.4-13.17,13.24s-2.14,12.63-.44,18.83c.44,1.61,2.94.92,2.5-.69h0Z"/>
    <path class="cls-5" d="M69.1,101.8c-4.48-3.01-7.54-7.82-9.5-12.77-.26-.65-.87-1.1-1.59-.9-.62.17-1.16.94-.9,1.59,2.23,5.62,5.59,10.89,10.69,14.31,1.39.93,2.69-1.31,1.31-2.24h0Z"/>
    <path class="cls-5" d="M57.35,88.41c-3.43,2.88-6.89,5.75-10.75,8.04-4.37,2.6-9.13,4.27-14.14,5.11-1.64.27-.94,2.77.69,2.5,5.22-.87,10.21-2.66,14.76-5.37,4.05-2.41,7.67-5.43,11.27-8.45,1.28-1.07-.56-2.9-1.83-1.83h0Z"/>
    <path class="cls-3" d="M33.22,137.55c1.84-.84,3.94-1.82,4.02-1.85,1.96-.71,1.88-1.97,2.13-3.38.17-.96.29-1.83.36-2.79"/>
    <path class="cls-3" d="M60.73,129.72c.08.87.19,1.74.34,2.6.25,1.42.17,2.68,2.13,3.38.1.03,3.1,1.46,4.78,2.25"/>
    <path class="cls-5" d="M46.44,121.81c1.3.69,2.71.98,4.18.97s3.04-.33,4.27-1.28c.54-.42.47-1.4,0-1.83-.57-.52-1.26-.45-1.83,0,.44-.34-.07.03-.21.1-.11.06-.42.15-.03.03-.12.04-.23.09-.35.13-.32.1-.64.17-.97.22.18-.03.12-.01-.03,0-.1,0-.19.02-.29.02-.23.01-.46.02-.69.02-.21,0-.41,0-.62-.02-.09,0-.19-.01-.28-.02-.08,0-.38,0-.07,0-.28.01-.64-.12-.91-.2-.13-.04-.25-.08-.38-.13-.31-.1.25.12-.03-.01-.16-.07-.31-.15-.46-.23-.6-.32-1.44-.17-1.77.46-.32.6-.18,1.43.46,1.77h0Z"/>
    <path class="cls-5" d="M49.85,112.1c.18.67.35,1.36.45,2.05l-.05-.34c.01.09.02.19,0,.28l.05-.34s-.02.09-.03.13l.13-.31s-.03.05-.04.08l.2-.26s-.04.05-.07.07l.26-.2c-.05.03-.11.06-.16.09l.31-.13c-.09.04-.18.06-.27.08l.34-.05c-.09.01-.17,0-.26,0l.34.05c-.1-.01-.19-.04-.29-.05-.17-.05-.34-.06-.52-.02-.17,0-.33.06-.48.15-.27.16-.52.47-.6.77-.08.33-.06.7.13,1,.17.26.45.55.77.6.24.03.48.09.72.1.39.02.75-.1,1.09-.26.43-.2.77-.6.89-1.07.1-.4.06-.73,0-1.12-.11-.66-.26-1.32-.43-1.96-.08-.31-.32-.61-.6-.77s-.69-.23-1-.13c-.67.22-1.09.89-.9,1.59h0Z"/>
    <path class="cls-5" d="M39.24,106.23c-.34,1.11-.12,3.67,1.99,3.89,2.79-.02,2.94-3.11,2-4.57-.77-1.19-3.03-1.69-3.99.68Z"/>
    <path class="cls-5" d="M61.56,106.23c.34,1.11.12,3.67-1.99,3.89-2.79-.02-2.94-3.11-2-4.57.77-1.19,3.03-1.69,3.99.68Z"/>
    <path class="cls-5" d="M69.64,114.64c-.22,1.07-.55,2.12-.94,3.14-.13.34-.28.68-.42,1.01s.07-.14-.04.1c-.04.1-.09.19-.13.29-.64,1.34-1.44,2.62-2.3,3.83-2.02,2.87-4.79,5.99-8.35,6.83-1.62.38-.94,2.88.69,2.5,4.12-.97,7.29-4.41,9.67-7.71.93-1.29,1.81-2.65,2.5-4.09.4-.83.46-1.02.77-1.79.44-1.11.81-2.25,1.05-3.42.34-1.63-2.16-2.32-2.5-.69h0Z"/>
    <path class="cls-5" d="M28.6,115.25c1.77,7.78,7.62,16.26,16.03,17.53.69.1,1.39-.17,1.59-.9.17-.61-.21-1.49-.9-1.59-7.57-1.14-12.63-8.73-14.22-15.72-.37-1.62-2.87-.94-2.5.69h0Z"/>
    <path class="cls-5" d="M72,105.05c.49-.44,1.17-.56,1.8-.43.31.06.57.16.82.35-.11-.09.4.49.22.23.74,1.08.75,2.59.64,3.85s-.57,2.56-1.18,3.68c-.73,1.35-1.86,2.74-3.54,2.52-.69-.09-1.3.66-1.3,1.3,0,.77.6,1.2,1.3,1.3,3.72.48,5.99-3.55,6.92-6.55.83-2.68.82-6.88-1.8-8.6-1.77-1.16-4.17-.84-5.71.53-1.25,1.11.59,2.94,1.83,1.83h0Z"/>
    <path class="cls-5" d="M30.63,103.22c-1.44-1.28-3.47-1.59-5.23-.78-1.27.58-2.05,1.78-2.4,3.09-.83,3.06-.05,6.64,1.71,9.25,1.19,1.77,3.06,3.36,5.33,3.06.69-.09,1.3-.53,1.3-1.3,0-.63-.6-1.39-1.3-1.3-1.69.22-2.81-1.17-3.54-2.52-.61-1.12-1.07-2.41-1.18-3.68s-.1-2.77.64-3.85c-.18.26.33-.31.22-.23.23-.17.46-.27.73-.33.67-.15,1.38-.05,1.9.41,1.24,1.11,3.08-.72,1.83-1.83h0Z"/>
    <path class="cls-5" d="M52.43,128.48c-.11-1.51,1.04-2.52,3.08-2.59s3.09.75,3.16,1.93-.89,2.64-2.94,2.77c-1.86.12-3.21-.76-3.3-2.11Z"/>
    <path class="cls-5" d="M71.12,116.64c-1.61,2.89-3.49,5.73-6.28,7.6-3.1,2.08-6.43,2.93-10.12,3.07-1.66.06-1.67,2.65,0,2.59,4.13-.16,7.96-1.1,11.43-3.42,3.18-2.13,5.38-5.23,7.21-8.53.81-1.46-1.43-2.77-2.24-1.31h0Z"/>
    <path class="cls-5" d="M53.73,128.48c0-.12,0-.24,0-.36,0-.26-.07.32-.01.07.01-.04.02-.09.03-.13.02-.06.04-.13.06-.19.04-.12.1-.07-.06.13.07-.09.15-.23.2-.33-.14.26-.15.18-.08.11.05-.05.09-.1.14-.14.03-.02.08-.06.1-.09-.16.22-.17.13-.04.04.1-.07.21-.12.32-.18.13-.07.06.04-.1.04.06,0,.16-.06.23-.08.13-.04.27-.08.41-.11.05-.01.21-.07.26-.05-.01,0-.33.03-.07.01.37-.03.73-.04,1.1-.01.02,0,.16,0,.19.02l-.17-.02c.06,0,.11.02.17.03.13.03.27.06.4.1.05.02.1.03.15.05.26.08-.27-.14-.04-.02.11.06.21.13.32.19.14.07-.24-.23-.09-.07.03.03.06.06.09.08.02.02.09.13.12.13-.19-.06-.16-.25-.1-.12.02.05.06.11.09.15.08.11-.08.08-.06-.15,0,.05.07.29.1.34-.11-.23-.02-.29-.02-.13,0,.05,0,.1,0,.15,0,.04,0,.08,0,.12,0,.22-.1.03.02-.1-.04.05-.05.24-.07.3-.01.04-.03.08-.04.12-.07.22.16-.3.02-.04-.05.09-.09.18-.15.26-.08.12-.19.15.04-.04-.03.03-.06.07-.09.11-.08.09-.17.17-.26.25-.19.18.26-.16.03-.02-.07.04-.13.08-.2.12-.06.03-.12.06-.17.09-.11.06-.22.04.05-.01-.14.03-.28.1-.41.13-.06.01-.12.03-.18.04l-.09.02c-.14.02-.12.02.06,0-.03-.04-.49.03-.54.03-.09,0-.44.04-.51-.03l.17.02c-.06,0-.11-.02-.17-.03-.08-.02-.17-.04-.25-.06-.07-.02-.13-.04-.2-.06-.04-.01-.08-.03-.11-.04-.13-.05-.1-.04.09.04-.04-.07-.29-.16-.36-.2-.14-.08-.07-.15.06.05-.04-.05-.11-.1-.16-.14-.04-.04-.09-.12-.14-.15.1.06.17.24.04.04-.03-.05-.05-.11-.08-.15-.04-.09-.02-.04.06.15-.02-.04-.03-.09-.05-.13-.01-.04-.03-.09-.04-.13-.08-.35.01.23,0,0-.05-.67-.56-1.33-1.3-1.3-.66.03-1.35.57-1.3,1.3.07.86.38,1.66,1.02,2.26s1.41.94,2.24,1.07c1.86.28,3.78-.21,4.91-1.79.9-1.25.88-3.01-.13-4.18-1.14-1.33-3.26-1.41-4.85-1.11-1.82.35-3.3,1.81-3.19,3.75.04.68.57,1.33,1.3,1.3.67-.03,1.34-.57,1.3-1.3Z"/>
    <path class="cls-2" d="M73.64,117.47c-3,0-5.27-2.78-5.27-7.71s2.75-7.38,5.27-7.38,5.99,2.03,5.99,7.38c0,4.65-2.65,7.71-5.99,7.71Z"/>
    <path class="cls-5" d="M73.64,116.18c-.88-.01-1.67-.33-2.32-1.01-.78-.8-1.18-1.9-1.42-2.98-.55-2.5-.37-5.89,1.7-7.7,1.32-1.15,2.94-1,4.35-.11,2.04,1.29,2.57,4.09,2.34,6.45-.25,2.56-1.81,5.3-4.65,5.34-1.67.03-1.67,2.62,0,2.59,7.52-.12,9.69-11.52,4.54-15.93-2.04-1.74-5.02-2.37-7.4-.93-3.19,1.93-4.01,6.09-3.6,9.54s2.45,7.25,6.47,7.32c1.67.03,1.67-2.56,0-2.59Z"/>
    <path class="cls-5" d="M23.11,164.1v-21.37c0-1.67-2.59-1.67-2.59,0v21.37c0,1.67,2.59,1.67,2.59,0h0Z"/>
    <path class="cls-5" d="M80.1,164.1v-21.37c0-1.67-2.59-1.67-2.59,0v21.37c0,1.67,2.59,1.67,2.59,0h0Z"/>
    <path class="cls-5" d="M56.83,142.76c-1.52-1.98-3.03-4-4.71-5.85v1.83c2.33-1.9,4.74-3.71,7.14-5.53.53-.4,1.06-.81,1.59-1.22.26-.2.53-.41.79-.61.09-.07.21-.13.28-.22.15-.1.11-.1-.12.01-.26.16-.5.09-.72-.21-.05.09.15.56.21.74.1.32.2.64.3.96.27.88.54,1.76.8,2.64.47,1.6,2.97.92,2.5-.69-.29-.99-.59-1.99-.9-2.98-.24-.77-.39-1.77-.95-2.37-.82-.87-2-.68-2.85-.01-.55.43-.87.68-1.41,1.09-2.83,2.17-5.7,4.29-8.47,6.55-.56.46-.43,1.36,0,1.83,1.54,1.69,2.92,3.52,4.31,5.33.43.55,1.11.85,1.77.46.55-.32.89-1.21.46-1.77h0Z"/>
    <path class="cls-5" d="M46.07,144.22c1.43-1.86,2.85-3.74,4.42-5.48.57-.63.47-1.57-.26-2.03-2.12-1.34-4.19-2.76-6.22-4.22-.78-.56-1.55-1.13-2.31-1.7-.81-.6-1.63-1.47-2.74-1.23s-1.4,1.08-1.75,1.98c-.25.64-.51,1.29-.77,1.93-.4,1-.8,2.01-1.2,3.01-.26.65.28,1.42.9,1.59.74.2,1.33-.25,1.59-.9.33-.82.65-1.63.98-2.45.25-.64.51-1.27.76-1.91.1-.26.21-.52.31-.79.03-.08.12-.22.12-.31.07-.17-.01-.07-.24.3-.57-.08-.72-.03-.44.14.23.26.62.47.89.67.33.25.66.5,1,.74.75.56,1.51,1.11,2.28,1.66,1.81,1.29,3.65,2.54,5.53,3.73l-.26-2.03c-1.73,1.9-3.27,3.97-4.83,6-.43.56-.09,1.45.46,1.77.67.39,1.34.09,1.77-.46h0Z"/>
    <path class="cls-5" d="M9.4,164.39c.13-7.48,3.92-14.79,9.5-19.7,4.72-4.15,11.26-6.38,17.26-7.87,1.62-.4.93-2.9-.69-2.5-6.54,1.63-13.6,4.15-18.66,8.77-5.93,5.41-9.87,13.24-10.01,21.3-.03,1.67,2.56,1.67,2.59,0h0Z"/>
    <path class="cls-5" d="M64.57,136.93c5.93,1.54,12.42,3.78,17.03,7.98,5.43,4.95,9.12,12.07,9.25,19.48.03,1.67,2.62,1.67,2.59,0-.14-8-4-15.61-9.76-21.08-4.93-4.68-11.96-7.2-18.43-8.88-1.61-.42-2.3,2.08-.69,2.5h0Z"/>
    <path class="cls-5" d="M64.08,134.02c-.43,1.2-1.48,3.04-2.24,4.42-1.29,2.34-2.63,4.66-3.98,6.97-2.73,4.66-5.51,9.28-8.28,13.92-.86,1.44,1.38,2.74,2.24,1.31,2.82-4.73,5.66-9.44,8.44-14.2,1.38-2.36,2.75-4.73,4.06-7.13.81-1.49,1.68-3,2.26-4.6s-1.94-2.25-2.5-.69h0Z"/>
    <path class="cls-5" d="M51.13,159.34c-2.76-4.63-5.53-9.25-8.24-13.91-1.35-2.31-2.68-4.63-3.97-6.98-.76-1.39-1.79-3.22-2.23-4.43-.56-1.56-3.06-.89-2.5.69s1.44,3.11,2.25,4.6c1.31,2.4,2.67,4.78,4.05,7.14,2.76,4.75,5.59,9.47,8.4,14.19.85,1.43,3.09.13,2.24-1.31h0Z"/>
    <path class="cls-2" d="M258.79,164.61c-.69-2.94-2.3-6.82-3.93-9.35-1.35-2.08-3.95-4.21-6.03-5.53-4.44-2.82-9.63-4.34-14.2-6.12-3.63,3.01-10.27,5.44-17.18,5.46-6.96-.02-13.63-2.48-17.25-5.51-4.61,1.81-9.85,3.33-14.33,6.17-2.08,1.32-4.68,3.45-6.03,5.53-1.63,2.52-3.24,6.41-3.93,9.35h82.89Z"/>
    <path class="cls-2" d="M238.07,108.58c.67-.64,1.57-.89,2.34-.86,1.68.06,2.4.97,2.7,1.5.92,1.59.88,4.53.26,6.34-.44,1.29-1.15,3.25-2.88,4.66-.78.64-1.97,1.04-3.06.73-.77,2.68-2.17,5.93-4.65,8.95-1.64,1.99-3.21,3.35-5,4.35,0,1.93,0,3.22,0,3.22,0,.57,0,1.19.21,1.74.28.73.66,1.36,1.27,1.85,1.29,1.04,2.62,1.54,4.25,2.15l1.07.42c-3.64,3-10.26,5.41-17.16,5.44-6.86-.02-13.43-2.4-17.09-5.37l1.22-.48c1.63-.61,2.96-1.11,4.25-2.15.61-.49.99-1.12,1.27-1.85.21-.55.21-1.17.21-1.74,0,0,0-1.03,0-2.73-2-1.1-3.82-2.72-5.56-4.84-2.47-3.01-3.87-6.24-4.64-8.92-1.06.26-2.19-.14-2.95-.76-1.72-1.41-2.44-3.38-2.88-4.66-.62-1.82-.66-4.75.26-6.34.31-.53,1.02-1.44,2.7-1.5.77-.03,1.67.21,2.34.86,0,0-6.2-19.13,19.83-19.13s21.66,19.13,21.66,19.13Z"/>
    <path class="cls-1" d="M241.18,91.88c-1.03-3.14-2.71-5.92-5.16-7.88l-2.76-2.89c-3.13-4.12-8.21-6.36-15.48-6.68-9.45-.32-16.43,3.91-19.52,7.85l.63.65c-6.41,5.56-8.74,15.52-5.63,24.93.28-.08.61-.14.97-.15.77-.03,1.67.21,2.34.86l3.32-2.78c2.49-2.77,6.88-6.95,9.96-8.57.36-.19.83.07.97.67s.14,1.03.09,1.45c-.07.64.55,1.1,1.07.81,2.2-1.22,6.12-3.68,8.9-4.85l4.12.51c1.33.58,2.34,1.13,3.8,2.39,2.5,2.15,4.9,5.11,5.96,7.78l3.29,2.61c.67-.64,1.57-.89,2.34-.86.42.01.79.08,1.1.19,1.27-5.04,1.31-11-.34-16.03Z"/>
    <path class="cls-5" d="M199.92,144.99c4.86,3.72,11.48,5.37,17.53,5.38s12.67-1.66,17.53-5.38c1.31-1,.02-3.25-1.31-2.24-8.89,6.8-23.55,6.8-32.44,0-1.32-1.01-2.61,1.24-1.31,2.24h0Z"/>
    <path class="cls-5" d="M226.51,134.81v2.14c0,.87-.04,1.78.26,2.61.57,1.61,1.75,2.72,3.22,3.53,1.7.94,3.63,1.54,5.44,2.26.65.26,1.42-.28,1.59-.9.2-.74-.25-1.34-.9-1.59-1.5-.59-3.1-1.12-4.44-1.79-.55-.28-1.18-.64-1.59-1-.11-.1-.21-.2-.3-.3-.1-.12-.12-.14-.06-.07-.05-.08-.11-.15-.15-.23-.07-.12-.14-.24-.21-.37-.1-.21-.11-.2-.15-.37-.17-.63-.11-1.38-.11-2.09v-1.82c0-.7-.6-1.3-1.3-1.3s-1.3.59-1.3,1.3h0Z"/>
    <path class="cls-5" d="M206.01,135.29v1.94c0,.37.01.75-.03,1.12.02-.19-.05.25-.05.24-.02.1-.05.19-.09.28.05-.1.04-.08-.03.07-.27.57-.49.88-.88,1.19-.51.41-1.11.74-1.7,1.02s-1.05.45-1.71.71c-.25.1-.51.19-.76.29-.59.23-1.18.47-1.78.7-.65.26-1.1.87-.9,1.59.17.62.94,1.16,1.59.9,1.74-.69,3.58-1.27,5.24-2.15,1.4-.74,2.61-1.73,3.24-3.2s.44-3.14.44-4.71c0-.7-.6-1.3-1.3-1.3s-1.3.59-1.3,1.3h0Z"/>
    <path class="cls-5" d="M199.18,83.19c3.78-4.73,10.06-7.11,15.97-7.44,6.26-.35,13.18,1.09,17.19,6.27,1.02,1.32,2.84-.53,1.83-1.83-4.4-5.68-12.17-7.42-19.03-7.03s-13.6,2.95-17.8,8.2c-1.03,1.29.79,3.13,1.83,1.83h0Z"/>
    <path class="cls-5" d="M194.48,107.41c-2.58-8.14-1.29-17.7,5.34-23.56,1.25-1.11-.59-2.93-1.83-1.83-7.28,6.45-8.85,17.12-6,26.08.5,1.58,3,.91,2.5-.69h0Z"/>
    <path class="cls-5" d="M235.1,84.92c6.38,5.23,7,15.05,5.19,22.53-.39,1.62,2.1,2.31,2.5.69,2.01-8.31,1.23-19.23-5.86-25.05-1.28-1.05-3.12.77-1.83,1.83h0Z"/>
    <path class="cls-5" d="M195.45,119.71c1.74,7.84,7.54,16.47,16.01,17.79.7.11,1.39-.18,1.59-.9.18-.61-.21-1.49-.9-1.59-7.63-1.19-12.64-8.94-14.2-15.98-.36-1.63-2.86-.94-2.5.69h0Z"/>
    <path class="cls-5" d="M236.6,119.02c-.77,3.47-2.24,6.8-4.44,9.62s-4.85,4.76-8.22,5.87c-1.58.52-.9,3.02.69,2.5,3.8-1.24,6.89-3.41,9.37-6.54s4.23-6.83,5.1-10.75c.36-1.62-2.14-2.32-2.5-.69h0Z"/>
    <path class="cls-5" d="M213.36,126.18c1.31.69,2.71.98,4.19.97s3.05-.33,4.28-1.28c.54-.42.47-1.4,0-1.83-.57-.52-1.26-.45-1.83,0,.44-.34-.07.03-.21.1-.11.06-.42.15-.04.03-.12.04-.23.09-.35.13-.32.1-.64.17-.97.22.18-.03.11-.01-.03,0-.1,0-.19.02-.29.02-.23.01-.46.02-.69.02-.21,0-.41,0-.62-.02-.09,0-.19-.01-.28-.02-.08,0-.38,0-.07,0-.28.01-.64-.12-.91-.2-.13-.04-.25-.08-.38-.13-.31-.11.25.12-.03-.01-.16-.07-.31-.15-.46-.23-.6-.32-1.44-.17-1.77.46-.32.6-.18,1.43.46,1.77h0Z"/>
    <path class="cls-5" d="M216.78,116.44c.18.68.35,1.36.45,2.06l-.05-.34c.01.09.02.19,0,.28l.05-.34s-.02.09-.03.13l.13-.31s-.03.06-.05.08l.2-.26s-.04.05-.07.07l.26-.2c-.05.03-.11.06-.16.09l.31-.13c-.09.04-.18.06-.27.08l.34-.05c-.09.01-.17,0-.26,0l.34.05c-.1-.01-.19-.04-.29-.05-.17-.05-.34-.06-.52-.02-.17,0-.33.06-.48.15-.27.16-.52.47-.6.77-.08.33-.06.7.13,1,.17.26.45.55.77.6.24.03.48.09.72.1.39.02.75-.1,1.1-.26.43-.2.77-.6.89-1.07.1-.4.06-.73,0-1.13-.11-.66-.27-1.32-.44-1.97-.08-.31-.32-.61-.6-.77s-.69-.23-1-.13c-.67.22-1.09.89-.9,1.59h0Z"/>
    <path class="cls-5" d="M206.14,110.56c-.34,1.12-.12,3.68,2,3.9,2.8-.02,2.94-3.12,2-4.58-.77-1.2-3.04-1.69-4,.68Z"/>
    <path class="cls-5" d="M228.52,110.56c.34,1.12.12,3.68-2,3.9-2.8-.02-2.94-3.12-2-4.58.77-1.2,3.04-1.69,4,.68Z"/>
    <path class="cls-5" d="M197.5,107.66c-1.44-1.29-3.48-1.59-5.24-.79-1.27.58-2.05,1.78-2.41,3.1-.84,3.07-.05,6.66,1.71,9.28,1.19,1.77,3.07,3.37,5.35,3.07.69-.09,1.3-.53,1.3-1.3,0-.63-.6-1.39-1.3-1.3-1.69.22-2.82-1.18-3.56-2.53-.61-1.12-1.08-2.42-1.19-3.7s-.1-2.78.64-3.86c-.18.26.33-.31.22-.23.22-.17.46-.27.73-.33.67-.15,1.39-.05,1.91.42,1.24,1.11,3.08-.72,1.83-1.83h0Z"/>
    <path class="cls-5" d="M238.99,109.49c.49-.44,1.17-.56,1.81-.44.31.06.58.16.83.35-.11-.08.4.49.22.23.75,1.09.75,2.6.64,3.86s-.58,2.57-1.19,3.7c-.73,1.36-1.86,2.75-3.56,2.53-.69-.09-1.3.66-1.3,1.3,0,.77.6,1.2,1.3,1.3,3.73.48,6-3.56,6.93-6.57.83-2.68.82-6.89-1.81-8.62-1.77-1.16-4.18-.84-5.72.53-1.25,1.11.59,2.94,1.83,1.83h0Z"/>
    <path class="cls-5" d="M224.37,96.92c2.07.91,3.75,2.25,5.31,3.87s3.06,3.56,3.85,5.52c.26.65.86,1.11,1.59.9.61-.17,1.17-.94.9-1.59-1-2.46-2.58-4.62-4.4-6.54-1.72-1.82-3.65-3.39-5.96-4.4-.64-.28-1.39-.19-1.77.46-.32.55-.18,1.49.46,1.77h0Z"/>
    <path class="cls-5" d="M200.82,106.71c1.64-1.82,3.4-3.54,5.25-5.15.93-.8,1.88-1.58,2.89-2.27.22-.15,1.29-.62,1.35-.84-.58-.4-.81-.43-.69-.07.04.14.05.28.05.43,0,.26-.04.52-.02.78.11,1.22,1.25,2.16,2.47,1.88.98-.23,1.99-1.04,2.85-1.55,2.15-1.25,4.3-2.54,6.59-3.52,1.53-.66.21-2.89-1.31-2.24-2.33,1-4.53,2.32-6.71,3.59-.52.3-1.04.61-1.56.91l-.22.12c-.44.17-.28.35.47.54.11-.1.02-.69.01-.81-.08-1.2-.62-2.54-1.99-2.65-1.01-.08-2.04.79-2.83,1.33-1.02.71-1.99,1.49-2.94,2.3-1.95,1.66-3.78,3.46-5.5,5.36-1.11,1.23.71,3.07,1.83,1.83h0Z"/>
    <path class="cls-5" d="M177.15,164.96c.65-2.65,1.65-5.22,2.96-7.62s3.24-4.3,5.49-5.87c4.83-3.38,10.61-4.88,16.01-7.09,1.52-.62.86-3.13-.69-2.5-5.83,2.39-12.13,3.99-17.26,7.8-2.3,1.7-4.3,3.66-5.69,6.18s-2.6,5.49-3.31,8.4c-.4,1.62,2.1,2.31,2.5.69h0Z"/>
    <path class="cls-5" d="M260.04,164.27c-.7-2.85-1.81-5.66-3.22-8.23s-3.43-4.59-5.79-6.34c-5.13-3.81-11.43-5.42-17.26-7.8-1.54-.63-2.21,1.87-.69,2.5,5.4,2.21,11.17,3.71,16.01,7.09,2.19,1.53,4.09,3.36,5.4,5.7s2.39,5.08,3.05,7.78c.4,1.62,2.89.93,2.5-.69h0Z"/>
    <path class="cls-2" d="M175.01,36.67h0s6.75,0,6.75,0c.8,0,1.19-.96.63-1.52l-7.38-7.32v-2.69c0-3.6-2.92-6.51-6.51-6.51h-52.84c-3.6,0-6.51,2.92-6.51,6.51v11.54c0,3.6,2.92,6.51,6.51,6.51h52.84c3.6,0,6.51-2.92,6.51-6.51Z"/>
    <path class="cls-5" d="M176.31,36.67h0c-.43.43-.86.86-1.3,1.3h5.55c.78,0,1.67.1,2.36-.34,1.25-.79,1.26-2.4.34-3.43-2.29-2.55-4.91-4.87-7.34-7.28l.38.92c0-1.45.12-2.96-.19-4.39-.47-2.23-2.03-4.23-4.06-5.25-1.6-.81-3.24-.86-4.97-.86h-49.94c-1.76,0-3.42.04-5.06.86-2.03,1.02-3.59,3.02-4.06,5.25-.23,1.07-.19,2.15-.19,3.23v9.24c0,3.78,1.92,7.28,5.79,8.31,1.3.35,2.67.26,4,.26h44.48c3.65,0,8.27.69,11.3-1.75,1.85-1.49,2.83-3.7,2.89-6.06.04-1.67-2.55-1.67-2.59,0-.09,3.35-2.76,5.22-5.88,5.22h-51.25c-2.55,0-4.99-.9-5.88-3.57-.37-1.13-.27-2.38-.27-3.55v-5.1c0-3.1-.65-6.98,2.4-8.93,1.46-.94,3.06-.82,4.7-.82h6.66c13.35,0,26.69,0,40.04,0,1.37,0,2.74-.02,4.11,0,1.45.02,2.8.48,3.84,1.53,1.53,1.53,1.53,3.39,1.53,5.39,0,.71-.09,1.32.38,1.91.23.29.55.54.81.8l3.49,3.46,1.76,1.74c.31.3.78,1.01,1.19,1.18.03.01.08.11.11.11.19,0,.4-.53.28-.66-.04-.05-.43,0-.49,0h-6.23c-.7,0-1.3.59-1.3,1.3h0c0,1.67,2.59,1.67,2.59,0Z"/>
    <path class="cls-4" d="M122.99,33.49h37.78c3.33,0,3.34-5.18,0-5.18h-37.78c-3.33,0-3.34,5.18,0,5.18h0Z"/>
    <path class="cls-7" d="M177.71,127.25h0s6.75,0,6.75,0c.8,0,1.19-.96.63-1.52l-7.38-7.32v-2.69c0-3.6-2.92-6.51-6.51-6.51h-58.1c-3.6,0-6.51,2.92-6.51,6.51v11.54c0,3.6,2.92,6.51,6.51,6.51h58.1c3.6,0,6.51-2.92,6.51-6.51Z"/>
    <path class="cls-5" d="M179.01,127.25h0c-.43.43-.86.86-1.3,1.3h5.55c.78,0,1.67.1,2.36-.34,1.25-.79,1.26-2.4.34-3.43-2.29-2.55-4.91-4.87-7.34-7.28l.38.92c0-1.56.14-3.2-.26-4.71-.65-2.45-2.52-4.45-4.89-5.32-1.45-.53-2.96-.47-4.47-.47h-54.31c-1.44,0-2.92-.09-4.31.36-2.42.78-4.33,2.69-5.11,5.11-.4,1.23-.36,2.51-.36,3.79v9.57c0,4.51,3.16,8.22,7.81,8.33,10.29.24,20.62,0,30.92,0h25.88c2.13,0,4.15-.21,5.95-1.55,2-1.5,3.09-3.78,3.15-6.26.04-1.67-2.55-1.67-2.59,0-.08,2.9-2.31,5.15-5.22,5.22-.26,0-.52,0-.79,0h-55.68c-2.01,0-3.91-.02-5.44-1.64-1.2-1.27-1.42-2.82-1.42-4.47v-5.36c0-3.12-.76-7.37,2.13-9.49,1.53-1.12,3.24-1,5-1h55.58c3.23,0,5.8,2.04,5.82,5.44,0,1.27-.3,2.66.63,3.64,1.08,1.14,2.23,2.22,3.35,3.32s2.2,2.47,3.45,3.42c.06.05.23.3.3.3.21,0,.39-.53.26-.66-.03-.03-.2.01-.23,0-.59-.19-1.63,0-2.24,0h-4.23c-.7,0-1.3.59-1.3,1.3h0c0,1.67,2.59,1.67,2.59,0Z"/>
    <path class="cls-2" d="M120.44,124.08h37.78c3.33,0,3.34-5.18,0-5.18h-37.78c-3.33,0-3.34,5.18,0,5.18h0Z"/>
    <path class="cls-6" d="M92.31,86.74h0s-6.83,0-6.83,0c-.81,0-1.21-.98-.64-1.54l7.47-7.41v-13.55c0-3.64,2.95-6.59,6.59-6.59h58.79c3.64,0,6.59,2.95,6.59,6.59v22.5c0,3.64-2.95,6.59-6.59,6.59h-58.79c-3.64,0-6.59-2.95-6.59-6.59Z"/>
    <path class="cls-5" d="M93.61,86.74h0c0-.7-.59-1.3-1.3-1.3h-6.3c-.07,0-.32-.04-.39,0-.17.1.03.65.15.65.21,0,.87-.87,1.03-1.02l4.55-4.51c.77-.77,2.16-1.7,2.26-2.86.13-1.4,0-2.87,0-4.27v-6.5c0-1.3-.16-2.78.17-4.06.63-2.38,2.78-3.9,5.19-3.94,5.01-.09,10.02,0,15.03,0h26.69c5.57,0,11.13-.03,16.7,0,1.53,0,2.95.45,4.05,1.55,1.25,1.25,1.55,2.82,1.55,4.5v11.11c0,3.42.01,6.83,0,10.25s-2.47,5.68-5.84,5.68h-44.14c-4.7,0-9.41.1-14.1,0-2.95-.06-5.22-2.36-5.3-5.3-.04-1.66-2.63-1.67-2.59,0,.12,4.56,3.72,7.87,8.22,7.89,1.77,0,3.53,0,5.3,0h52.39c3.54,0,6.78-1.59,8.13-5.05.97-2.5.53-5.76.53-8.37v-12.27c0-2.86.42-6.16-1.11-8.72-1.72-2.88-4.68-3.86-7.83-3.86h-42.87c-4.9,0-9.8-.04-14.71,0-4.48.04-7.98,3.49-8.05,7.98-.06,3.45,0,6.9,0,10.34v3.12l.38-.92c-2.46,2.44-5.11,4.78-7.42,7.36-.85.95-.97,2.37.07,3.26.71.61,1.59.54,2.46.54h5.81l-1.3-1.3h0c0,1.67,2.59,1.67,2.59,0Z"/>
    <path class="cls-2" d="M108.41,72.25h37.56c3.33,0,3.34-5.18,0-5.18h-37.56c-3.33,0-3.34,5.18,0,5.18h0Z"/>
    <path class="cls-2" d="M108.41,83.91h19.26c3.33,0,3.34-5.18,0-5.18h-19.26c-3.33,0-3.34,5.18,0,5.18h0Z"/>
    <rect class="cls-3" width="266.89" height="186.67"/>
  </g>
</svg>