<?xml version="1.0" encoding="UTF-8"?>
<svg xmlns="http://www.w3.org/2000/svg" viewBox="0 0 266.89 194.8">
  <g id="contact_form_icon">
    <rect fill="#e0e0df" x="73.39" y="44.49" width="120.12" height="122.28" rx="2.59" ry="2.59"/>
    
    <path fill="#1b306f" d="M197.82,37.59c1.43,0,2.59,1.16,2.59,2.59v130.91c0,1.43-1.16,2.59-2.59,2.59H69.07c-1.43,0-2.59-1.16-2.59-2.59V40.18c0-1.43,1.16-2.59,2.59-2.59h128.75M197.82,35H69.07c-2.85,0-5.18,2.32-5.18,5.18v130.91c0,2.85,2.32,5.18,5.18,5.18h128.75c2.85,0,5.18-2.32,5.18-5.18V40.18c0-2.85-2.32-5.18-5.18-5.18h0Z"/>
    
    <rect fill="#ffffff" x="82.05" y="103.51" width="103.54" height="17.88" rx="2.36" ry="2.36"/>
    <line fill="none" stroke="#dbdcdc" stroke-linecap="round" stroke-width="2.59" stroke-miterlimit="10" x1="93.61" y1="112.45" x2="174.04" y2="112.45"/>
    
    <rect fill="#ffffff" x="82.05" y="82.16" width="103.54" height="17.88" rx="2.36" ry="2.36"/>
    <line fill="none" stroke="#dbdcdc" stroke-linecap="round" stroke-width="2.59" stroke-miterlimit="10" x1="93.61" y1="91.11" x2="174.04" y2="91.11"/>
    
    <rect fill="#ffffff" x="82.05" y="60.82" width="103.54" height="17.88" rx="2.36" ry="2.36"/>
    
    <rect fill="#6aa3d2" stroke="#1b306f" stroke-width="2.5" stroke-miterlimit="10" x="98.93" y="131.12" width="69.03" height="21.57" rx="2.59" ry="2.59"/>
    
    <path fill="#f5eda2" stroke="#1b306f" stroke-width="2.5" stroke-miterlimit="10" d="M160.39,144.83l2.52,14.19c.05.3.34.5.64.45.13-.02.24-.09.33-.19l3.42-4.09c.2-.23.55-.27.78-.07l7.13,5.97c.23.2.58.17.78-.07l3.71-4.43c.2-.23.17-.58-.07-.78l-7.13-5.97c-.23-.2-.27-.55-.07-.78l3.34-3.99c.2-.23.17-.58-.07-.78-.1-.08-.23-.13-.36-.13l-14.41.02c-.31,0-.55.25-.55.55,0,.03,0,.06,0,.1Z"/>
    
    <path fill="#ffffff" d="M98.42,25.38c0,12.73,0,29.23-.01,42.06,0,2.34,1.9,4.24,4.24,4.24h0c14.75,0,46.15.02,61.58.02,2.34,0,4.24-1.89,4.24-4.23h0c0-12.84,0-29.33.01-42.06,0-2.34-1.89-4.24-4.23-4.24,0,0,0,0,0,0-12.93,0-47.17-.02-61.58-.02-2.34,0-4.24,1.89-4.24,4.23h0Z"/>
    <path fill="#1b306f" d="M97.21,25.48v28.84s0,7.12,0,7.12v3.13c-.06,1.2-.04,2.4.08,3.59.31,2.01,1.68,3.69,3.58,4.41,1.46.57,3.21.36,4.75.36,15.4,0,30.8.01,46.19.02h10.13c1.73,0,3.5.14,5.05-.8,1.74-1.09,2.78-3.02,2.72-5.08.06-9.54,0-19.09,0-28.63v-10.48c.06-1.1.03-2.2-.07-3.3-.31-2.01-1.68-3.69-3.58-4.41-1.35-.52-2.9-.36-4.32-.36h-19.55s-22.97-.01-22.97-.01h-14.38c-1.62,0-3.24-.1-4.72.69-1.78,1-2.89,2.88-2.91,4.92-.05,1.8,2.74,1.79,2.79,0,.02-1.55,1.27-2.81,2.82-2.83,1.23-.05,2.47,0,3.71,0h30.87s19.99.01,19.99.01h3.94c1.11,0,2.47-.21,3.54.11.67.2,1.24.63,1.61,1.22.39.8.54,1.69.42,2.57v6.5c0,9.22,0,18.44,0,27.66,0,2.11.01,4.22,0,6.33.11,1.56-1.03,2.93-2.58,3.09-1.41.13-2.89,0-4.31,0h-4.82l-44.63-.02h-6.57c-.73.07-1.47.01-2.19-.18-1.78-.68-1.82-2.38-1.82-4.01v-6.56c0-9.22,0-18.43,0-27.65v-6.27c0-1.8-2.79-1.8-2.79,0Z"/>
    <path fill="#1b306f" d="M104.28,30.64c7.16,6.34,14.45,12.55,21.86,18.61.83.68,1.66,1.36,2.5,2.03.89.81,1.83,1.56,2.82,2.24.92.53,2.01.66,3.02.35,1.16-.35,2.16-1.4,3.1-2.14,4-3.16,7.94-6.4,11.82-9.7,4.46-3.77,8.86-7.61,13.21-11.5,1.34-1.2-.64-3.16-1.97-1.97-7.34,6.54-14.78,12.97-22.44,19.14-.86.69-1.72,1.38-2.59,2.07-.58.46-1.57,1.61-2.37,1.49-.43-.14-.81-.39-1.11-.72-.43-.34-.86-.69-1.29-1.03-.87-.71-1.74-1.41-2.62-2.12-3.52-2.88-7.01-5.79-10.48-8.74-3.87-3.29-7.7-6.61-11.5-9.97-1.34-1.19-3.32.78-1.97,1.97h0Z"/>
    
    <path fill="#f5eda2" stroke="#1b306f" stroke-width="2.5" stroke-miterlimit="10" d="M56.7,35.64l-.59,1.48c-.47,1.16-1.61,1.76-2.61,1.36l-12.94-5.2c-1.08-.43-1.57-1.86-1.06-3.12l1.6-4c.52-1.31,1.89-1.87,2.92-1.2l11.93,7.72c.88.57,1.21,1.85.76,2.96Z"/>
    <path fill="#f5eda2" stroke="#1b306f" stroke-width="2.5" stroke-miterlimit="10" d="M54.94,47.39l-.02.79c-.03,1.08-.79,1.96-1.79,2.05l-12.16,1.13c-1.21.11-2.25-.95-2.22-2.26l.09-3.8c.03-1.27,1.07-2.22,2.25-2.04l12.09,1.88c1.03.16,1.79,1.13,1.76,2.25Z"/>
    <path fill="#f5eda2" stroke="#1b306f" stroke-width="2.5" stroke-miterlimit="10" d="M64.25,26.67l-.77.56c-1,.73-2.3.7-3-.07l-8.16-9.02c-.79-.87-.49-2.34.64-3.16l3.4-2.48c1.17-.85,2.7-.64,3.25.44l5.53,10.94c.45.9.07,2.09-.9,2.79Z"/>
  </g>
</svg>