<?xml version="1.0" encoding="UTF-8"?>
<svg xmlns="http://www.w3.org/2000/svg" viewBox="0 0 266.89 194.8">
  <g id="isometric_system_icon">
    <path fill="#ffffff" d="M50.33,150.56v-68.34c0-.92.49-1.77,1.29-2.23l81.6-47.11c1.71-.99,3.86.25,3.86,2.23v65.37c0,.92.49,1.77,1.29,2.23l56.61,32.68c1.71.99,1.71,3.47,0,4.45l-81.6,47.11c-.8.46-1.78.46-2.57,0l-59.18-34.17c-.8-.46-1.29-1.31-1.29-2.23h0Z"/>
    <path fill="#e0e0df" d="M162.78,126.58c.43.25.43.87,0,1.11l-68.87,39.76-.09-.05-27.96-16.14c-.43-.25-.43-.87,0-1.11l68.55-39.57c.2-.12.44-.12.64,0l27.73,16.01h0Z"/>
    <path fill="#ffffff" d="M149.98,138.03l-2.56-1.48c-12.4,7.16-24.8,14.32-37.21,21.48,0,0,26.62,15.37,26.62,15.37,9.39-5.42,29.18-16.85,37.21-21.48,0,0-17.4-10.05-24.07-13.9h0Z"/>
    <path fill="#ffffff" d="M137.07,38.98v-4.91c0-1.51-1.64-2.46-2.95-1.7l-82.81,47.81c-.61.35-.98,1-.98,1.7v67.95c22.26-12.86,64.47-37.23,86.74-50.08v-60.76Z"/>

    <path fill="#1b306f" d="M161.87,127.49c-.44-.34.65-1.01.15-.84-.12.04-.24.14-.34.2l-1.36.78-4.99,2.88-16.42,9.48c-6.65,3.84-13.31,7.68-19.96,11.52-5.73,3.31-11.47,6.62-17.2,9.93l-5.67,3.28c-.88.51-1.87.96-2.7,1.56-.04.03-.08.05-.12.07h1.3c-3.72-2.15-7.45-4.3-11.17-6.45l-15.47-8.93c-.39-.22-.9-.67-1.34-.77-.02,0-.04-.04-.06-.04.72,0,.12,1.11,0,1.11,0,0,0,0,0,0,0,0,.02-.01.02-.01.02.01.17-.1.19-.11.88-.38,1.73-1,2.56-1.48l11.89-6.87,17.04-9.84,17.74-10.24c4.6-2.66,9.2-5.31,13.81-7.97l3.97-2.29,1.04-.6c.61-.35-.14.12-.34-.15.22.29.9.52,1.2.69l2.72,1.57,8.04,4.64,14.85,8.57.88.51c1.44.83,2.73-1.39,1.3-2.22-3.86-2.23-7.72-4.46-11.58-6.68-5.08-2.93-10.16-5.87-15.24-8.8-.39-.23-.79-.5-1.22-.66-.7-.25-1.31-.05-1.9.28-.92.52-1.83,1.06-2.75,1.59l-12.42,7.17c-5.84,3.37-11.68,6.74-17.52,10.12l-17.86,10.31c-4.47,2.58-8.94,5.16-13.41,7.74l-3.55,2.05c-.23.13-.48.26-.7.4-1.28.83-1.34,2.52-.05,3.38,1.24.83,2.61,1.5,3.89,2.25l8.2,4.73c5,2.89,10,5.77,15,8.66l.94.54c.4.23.9.23,1.3,0,2.37-1.37,4.74-2.74,7.11-4.1l16.97-9.8c6.77-3.91,13.54-7.81,20.3-11.72l17.1-9.88,5.31-3.07c.68-.39,1.41-.75,2.06-1.19,1.05-.7,1.35-2.29.26-3.14-.55-.42-1.28-.53-1.82,0-.44.44-.55,1.39,0,1.82h0Z"/>
    <path fill="#1b306f" d="M137.5,172.29c-3-1.73-6-3.46-9-5.2l-14.34-8.28-3.29-1.9c-1.44-.83-2.73,1.39-1.3,2.22,3,1.73,6,3.46,9,5.2l14.34,8.28c1.1.63,2.19,1.26,3.29,1.9,1.44.83,2.73-1.39,1.3-2.22h0Z"/>
    <path fill="#1b306f" d="M146.78,137.66c3,1.73,6,3.46,9,5.2l14.34,8.28,3.29,1.9c1.44.83,2.73-1.39,1.3-2.22-3-1.73-6-3.46-9-5.2l-14.34-8.28-3.29-1.9c-1.44-.83-2.73,1.39-1.3,2.22h0Z"/>
    <path fill="#1b306f" d="M51.61,150.56v-63.04c0-1.75-.11-3.55,0-5.3.05-.81.59-1.09,1.19-1.43l2.11-1.22,8.18-4.72c3.99-2.3,7.98-4.61,11.97-6.91,4.73-2.73,9.45-5.46,14.18-8.19,4.87-2.81,9.75-5.63,14.62-8.44,4.43-2.56,8.86-5.12,13.3-7.68,3.47-2,6.93-4,10.39-6l5.71-3.3c.53-.31,1.05-.69,1.7-.43.91.36.81,1.28.81,2.07v63.73c0,2.85.26,2.88,1.55,3.84.47.35.99.62,1.49.91l8.15,4.7,13.16,7.6c4.86,2.81,9.73,5.62,14.59,8.42,4.14,2.39,8.27,4.78,12.41,7.16l6.79,3.92c.13.07.27.14.39.23.85.57.86,1.67,0,2.24-.29.19-.61.35-.91.53l-6.24,3.6-10.76,6.22c-4.52,2.61-9.04,5.22-13.57,7.83-4.89,2.82-9.77,5.64-14.66,8.46-4.66,2.69-9.31,5.38-13.97,8.07-3.91,2.25-7.81,4.51-11.72,6.76-2.56,1.48-5.12,2.96-7.68,4.43-.96.56-2.32,1.74-3.45,1.15-1.86-.96-3.64-2.1-5.45-3.14l-11.54-6.67c-4.77-2.76-9.55-5.51-14.32-8.27-4.66-2.69-9.32-5.38-13.98-8.07-3.44-1.99-6.88-3.97-10.33-5.96l-2.69-1.55c-.66-.38-1.4-.68-1.44-1.57-.07-1.65-2.65-1.66-2.57,0,.08,1.75,1.1,2.86,2.51,3.68l2.68,1.55,10.29,5.94c4.69,2.71,9.39,5.42,14.08,8.13,4.84,2.79,9.68,5.59,14.52,8.38,3.87,2.23,7.74,4.47,11.61,6.7,1.78,1.03,3.54,2.11,5.35,3.09,2.25,1.22,3.97.01,5.83-1.06l7.59-4.38c3.92-2.26,7.83-4.52,11.75-6.78,4.72-2.72,9.43-5.45,14.15-8.17,4.93-2.85,9.86-5.69,14.79-8.54,4.56-2.63,9.12-5.26,13.67-7.89,3.61-2.09,7.22-4.17,10.84-6.26l6.13-3.54c.47-.27.95-.52,1.37-.87,2.14-1.8,1.5-5.02-.76-6.35-2.03-1.19-4.08-2.36-6.12-3.54-4.08-2.36-8.16-4.71-12.24-7.07-4.9-2.83-9.79-5.65-14.69-8.48-4.49-2.59-8.98-5.19-13.47-7.78l-8.59-4.96c-.44-.25-.9-.48-1.32-.76-.76-.51-.65-1.28-.65-2.07v-63.91c0-2.69-.82-3.59-2.74-4.2-1.27-.4-2.45,0-3.53.63l-5.55,3.21c-3.46,2-6.92,4-10.38,5.99-4.48,2.59-8.97,5.18-13.45,7.76-4.92,2.84-9.84,5.68-14.76,8.52-4.77,2.75-9.54,5.51-14.3,8.26-4.03,2.33-8.06,4.65-12.09,6.98-2.71,1.56-5.41,3.12-8.12,4.69-1.94,1.12-4.23,2.03-4.38,4.65-.1,1.72,0,3.47,0,5.19v63.26c0,1.66,2.57,1.66,2.57,0h0Z"/>
    <path fill="#1b306f" d="M129,102.92c-2.39,1.38-4.78,2.76-7.17,4.14-5.74,3.31-11.47,6.62-17.21,9.94-6.91,3.99-13.82,7.98-20.74,11.97l-17.93,10.35c-2.9,1.68-5.89,3.26-8.73,5.04-.04.03-.08.05-.13.07-1.43.83-.14,3.05,1.3,2.22,2.39-1.38,4.78-2.76,7.17-4.14,5.74-3.31,11.47-6.62,17.21-9.94,6.91-3.99,13.82-7.98,20.74-11.97l17.93-10.35c2.9-1.68,5.89-3.26,8.73-5.04.04-.03.08-.05.13-.07,1.43-.83.14-3.05-1.3-2.22h0Z"/>

    <path fill="#f5eda2" stroke="#1b306f" stroke-width="2.5" stroke-miterlimit="10" d="M97.54,43.86l60.08-35.16c1.7-.99,3.83.23,3.83,2.2v55.06c0,.91-.49,1.76-1.28,2.21l-60.08,34.28c-1.7.97-3.81-.26-3.81-2.21v-54.19c0-.9.48-1.74,1.26-2.2Z"/>
    <path fill="#e0e0df" stroke="#1b306f" stroke-width="2.5" stroke-miterlimit="10" d="M157.81,34.34l42.92-25.75c1.84-1.11,4.19.22,4.19,2.37v66.03c0,.99-.53,1.9-1.38,2.39l-42.92,24.83c-1.84,1.07-4.15-.26-4.15-2.39V36.71c0-.97.51-1.87,1.34-2.37Z"/>
    <path fill="#ffffff" stroke="#1b306f" stroke-width="2.5" stroke-miterlimit="10" d="M167.89,63.14l9.75-5.85c.61-.37,1.4.07,1.4.79v27.18c0,.33-.18.63-.46.8l-9.75,5.64c-.61.36-1.38-.09-1.38-.8v-26.97c0-.32.17-.62.45-.79Z"/>
    <path fill="#ffffff" stroke="#1b306f" stroke-width="2.5" stroke-miterlimit="10" d="M166.13,40.1l28.18-16.9c.61-.37,1.4.07,1.4.79v14.62c0,.33-.18.63-.46.8l-28.18,16.3c-.61.36-1.38-.09-1.38-.8v-14.02c0-.32.17-.62.45-.79Z"/>

    <line fill="none" stroke="#1b306f" stroke-width="2.5" stroke-miterlimit="10" stroke-linecap="round" x1="183.53" y1="58.87" x2="195.97" y2="51.74"/>
    <line fill="none" stroke="#1b306f" stroke-width="2.5" stroke-miterlimit="10" stroke-linecap="round" x1="183.53" y1="68.79" x2="195.97" y2="61.66"/>
    <line fill="none" stroke="#1b306f" stroke-width="2.5" stroke-miterlimit="10" stroke-linecap="round" x1="183.53" y1="78.71" x2="195.97" y2="71.58"/>

    <path fill="#6aa3d2" stroke="#1b306f" stroke-width="2.5" stroke-miterlimit="10" d="M231.8,147.3c.14-.54-.17-1.1-.7-1.28l-3.52-1.18c.13-2.51-.15-5.03-.83-7.46l2.83-1.97c.46-.32.6-.94.31-1.43-1.11-1.88-2.56-4.32-3.68-6.21-.29-.48-.9-.66-1.4-.41l-2.99,1.49c-1.8-1.8-3.91-3.27-6.23-4.33l.64-3.6c.1-.55-.24-1.09-.79-1.23-2.12-.55-4.87-1.25-6.99-1.79-.54-.14-1.1.17-1.28.7l-1.24,3.69c-2.4.02-4.79.39-7.09,1.12l-2.29-3.29c-.32-.46-.94-.6-1.43-.31-1.88,1.11-4.32,2.56-6.21,3.68-.48.29-.66.9-.41,1.4l1.69,3.38c-1.81,1.68-3.3,3.66-4.42,5.86l-3.69-.66c-.55-.1-1.09.24-1.23.79-.55,2.12-1.25,4.87-1.79,6.99-.14.54.17,1.1.7,1.28l3.51,1.18c-.1,2.5.21,5,.92,7.4l-2.92,2.04c-.46.32-.6.94-.31,1.43,1.11,1.88,2.56,4.32,3.68,6.21.29.48.9.66,1.4.41l3.11-1.55c1.77,1.79,3.84,3.26,6.12,4.34l-.65,3.64c-.1.55.24,1.09.79,1.23,2.12.55,4.87,1.25,6.99,1.79.54.14,1.1-.17,1.28-.7l1.2-3.58c2.49.11,4.99-.17,7.39-.85l2.03,2.91c.32.46.94.6,1.43.31,1.88-1.11,4.32-2.56,6.21-3.68.48-.29.66-.9.41-1.4l-1.51-3.04c1.8-1.79,3.28-3.88,4.36-6.18l3.59.64c.55.1,1.09-.24,1.23-.79.55-2.12,1.25-4.87,1.79-7Z"/>
    <path fill="#ffffff" stroke="#1b306f" stroke-width="2.5" stroke-miterlimit="10" d="M207.51,133.94c2.87.56,5.47,2.07,7.04,4.58,2.79,4.49,1.51,11.29-2.75,14.42-4.59,3.36-11.95,2.13-15.16-2.56-3.21-4.69-2.01-11.54,2.68-14.68,2.41-1.6,5.33-2.24,8.19-1.77Z"/>

    <path fill="#6aa3d2" stroke="#1b306f" stroke-width="2.5" stroke-miterlimit="10" d="M68.18,45.05c.1-.4-.12-.8-.51-.93l-2.56-.86c.09-1.83-.11-3.66-.6-5.43l2.06-1.44c.34-.23.44-.69.23-1.04-.81-1.37-1.86-3.14-2.68-4.52-.21-.35-.65-.48-1.02-.3l-2.18,1.08c-1.31-1.31-2.85-2.38-4.53-3.15l.47-2.62c.07-.4-.18-.79-.57-.89-1.54-.4-3.54-.91-5.09-1.3-.4-.1-.8.12-.93.51l-.9,2.68c-1.75.01-3.49.29-5.15.81l-1.67-2.39c-.23-.34-.69-.43-1.04-.23-1.37.81-3.14,1.86-4.52,2.68-.35.21-.48.65-.3,1.02l1.23,2.46c-1.31,1.22-2.4,2.66-3.22,4.26l-2.69-.48c-.4-.07-.79.18-.9.57-.4,1.54-.91,3.54-1.3,5.09-.1.4.12.8.51.93l2.56.86c-.07,1.82.15,3.64.67,5.38l-2.12,1.48c-.34.23-.44.69-.23,1.04.81,1.37,1.86,3.14,2.68,4.52.21.35.65.48,1.02.3l2.26-1.13c1.29,1.3,2.8,2.37,4.45,3.15l-.47,2.65c-.07.4.18.79.57.89,1.54.4,3.54.91,5.09,1.3.4.1.8-.12.93-.51l.87-2.6c1.81.08,3.63-.13,5.37-.62l1.47,2.12c.23.34.69.43,1.04.23,1.37-.81,3.14-1.86,4.52-2.68.35-.21.48-.65.3-1.02l-1.1-2.21c1.31-1.3,2.38-2.82,3.17-4.49l2.61.47c.4.07.79-.18.89-.57.4-1.54.91-3.54,1.3-5.09Z"/>
    <path fill="#ffffff" stroke="#1b306f" stroke-width="2.5" stroke-miterlimit="10" d="M50.51,35.34c2.08.41,3.98,1.5,5.12,3.33,2.03,3.26,1.1,8.22-2,10.49-3.34,2.44-8.69,1.55-11.03-1.86-2.33-3.41-1.46-8.39,1.95-10.67,1.75-1.17,3.88-1.63,5.96-1.29Z"/>
  </g>
</svg>