<?xml version="1.0" encoding="UTF-8"?>
<svg xmlns="http://www.w3.org/2000/svg" viewBox="0 0 266.89 194.8" width="100%" height="100%" preserveAspectRatio="xMidYMid meet">
  <g id="main_layer">
    <path fill="#fff" d="M150.87,122.97c-.38.03-.75.09-1.12.18-11.87,3.1-48.13,12.58-60.4,15.75-.81.21-.81,1.35,0,1.57,5.72,1.56,15.95,4.34,24.39,6.63,14.09-3.8,44.3-11.92,65.28-17.62l-10.54-2.58c-4.37-1.07-11.35-2.72-15.75-3.78-.61-.15-1.23-.2-1.85-.15Z"/>
    <path fill="#fff" d="M182.09,29.15c-4.46,2.66-6.82,5.84-7.38,6.77-1.73,2.92-2.71,5.1-3.23,9.02-.32,1.57-.52,3.27-.57,5.12-.41,3.88-.95,9.25-4.65,10.91-.73.33-1.4.83-1.77,1.53-.99,1.87.61,2.86,1.56,4.05.63.79.97,1.68,1.16,2.62-.03,1.27.05,3.5.37,5.66.21,1.42.53,2.8.99,3.85.97,2.23,2.34,3.41,3.8,4.07,2.86,1.3,6.86,1.98,9.52,1.47.64-.12,1.27.26,1.47.87.03.1,1.04,2.01,1.79,4.33l2.23,7.18c3.24-.5,15.59-2.41,22.18-3.43-.51-2.17-.93-4.01-.93-4.01-.21-1.29-.37-3.64-.25-4.37.57-3.34,4.94-6.34,7.37-8.63,3.75-3.52,9.35-10.52,9.82-20.8.26-5.68-1.46-11.57-3.87-15.75-6.2-10.76-13.91-13.11-18.71-14.07-4.79-.96-9.54-.53-13.87.63-2.75.74-5.09,1.8-7.03,2.95Z"/>
    <path fill="#1b306f" d="M168.81,125.66c-4.43-1.08-8.86-2.13-13.3-3.19-2.2-.53-4.18-1.04-6.43-.47-1.13.29-2.26.59-3.39.89-6.7,1.75-13.4,3.5-20.09,5.25-7.53,1.97-15.05,3.93-22.58,5.89-3.18.83-6.37,1.66-9.55,2.49-1.86.48-7.4,1.05-5.78,4.17.48.92,1.46,1.1,2.37,1.34,1.06.29,2.12.58,3.19.87,2.47.67,4.94,1.34,7.41,2.01,5.27,1.43,10.54,2.86,15.82,4.29,1.61.44,2.3-2.06.69-2.5-8.42-2.28-16.84-4.56-25.26-6.86-.38-.1-.77-.21-1.15-.31-.11-.03-.41-.15-.54-.15l-.26-.07c-.32.64-.32.91,0,.8.27.11,1.23-.32,1.52-.4,1.2-.31,2.4-.62,3.6-.93,2.98-.77,5.96-1.55,8.93-2.33,13.54-3.53,27.08-7.07,40.62-10.6,1.34-.35,2.68-.7,4.02-1.05.62-.16,1.24-.37,1.87-.47,1.23-.2,2.44.2,3.63.48,4.66,1.11,9.33,2.21,13.99,3.35,1.62.4,2.31-2.1.69-2.5h0Z"/>
    <path fill="#fff" d="M149.04,132.11c.98-.04,1.92-.16,3.22-.34,1.24-.17,2.49-.28,3.75-.39.21-.02,2.15.64,2.71.98.46.28.96.61,1.09,1.1.13.5-.43,1.11-.92.87l-.78,1.45c1.2,1.24,2.84,2.04,4.54,2.26,1.09-4.46,2.2-9.32,3.37-13.84-2.21-.75-4.51-1.24-6.84-1.25-2.9-.01-5.86.76-8.19,2.49-.64.48-1.28,1.35-.81,2,0,0,.05.12.11.3-.3.12-.57.23-.8.33-.91.37-1.62.96-2.16,1.79-.28.43-.23.98.04,1.42.32.54.99.86,1.66.83Z"/>
    <path fill="#1b306f" d="M167.98,123.56c-3.74-1.48-7.74-2.3-11.75-1.64-2.42.4-9.13,2.58-7.16,6.18.8,1.46,3.04.16,2.24-1.31,0,.19.03.2.11.03.09-.11.2-.21.31-.31.23-.2.51-.36.77-.52.6-.37,1.24-.69,1.9-.93,1.26-.46,2.58-.73,3.92-.8,3.1-.16,6.12.64,8.98,1.78.66.26,1.42-.28,1.59-.9.21-.73-.26-1.34-.9-1.59h0Z"/>
    <path fill="#1b306f" d="M154.6,125.33c-1.67.36-3.35.65-4.95,1.29s-3.84,1.9-3.79,3.95c.02,1.01.63,1.92,1.49,2.42s1.78.44,2.7.35,1.94-.25,2.91-.37c.51-.06,1.01-.11,1.52-.16.23-.02.47-.04.7-.06.16-.01.31-.03.47-.04.08,0,.16-.01.23-.02.16,0,.16-.01-.01-.03.03.04-.22-.07-.07,0,.05.02.11.03.16.04.15.04.3.09.45.13.35.11.69.24,1.03.36.2.07.34.12.62.29.04.02.44.33.47.33.07-.01-.16.13,0-.09.19-.25-.11-.89.69-.63-1.59-.51-2.27,1.99-.69,2.5,1.08.35,2.25-.38,2.51-1.47s-.44-2.02-1.3-2.62c-.58-.41-1.24-.66-1.9-.9-.53-.19-1.08-.42-1.64-.48-.96-.1-2.06.13-3.02.24-1.02.12-2.03.29-3.05.38-.31.03-1.54.31-1.67-.15-.11-.38.95-1.04,1.24-1.19,1.71-.9,3.71-1.17,5.58-1.57,1.63-.35.94-2.85-.69-2.5h0Z"/>
    <path fill="#1b306f" d="M163.91,136.81c-.25,0-.5,0-.75,0-.14,0-.28-.02-.42-.04-.18-.02.25.04.07,0-.06-.01-.12-.02-.18-.03-.51-.09-1-.24-1.48-.42-.17-.06,0-.02.05.02-.03-.03-.13-.06-.17-.08-.11-.05-.22-.11-.34-.16-.22-.12-.44-.24-.64-.38-.1-.07-.21-.14-.31-.21-.03-.02-.25-.18-.09-.07.14.1-.02-.02-.05-.04-.2-.17-.4-.35-.58-.54-.48-.48-1.36-.51-1.83,0s-.51,1.32,0,1.83c1.75,1.78,4.23,2.79,6.73,2.7.68-.02,1.33-.58,1.3-1.3s-.57-1.32-1.3-1.3h0Z"/>
    <path fill="#fff" d="M140.92,141.12c-.52-1.89-1.27-3.59-2.28-5.3-.27-.45-.64-.83-1.12-1.03-.59-.24-1.26-.32-1.79-.13-.82.29-1.34.56-1.74,1.48-.54-1.71-2.11-2.86-3.79-3.37-1.5-.46-3.1-.48-4.67-.44-1.41.03-3.04.73-3.4,1.56-.39.02-.75.07-1.08.14-.5.11-.91.25-1.15.36-.92.4-1.83.81-2.73,1.25-.54.26-1.17.87-1.11,1.58,0,0,.02.19.04.54-.72.24-1.4.58-2.01,1.04-.51.39-.97.87-1.16,1.48-.19.61-.03,1.36.5,1.72,0,0,.45.31,1.09.74-.22.2-.42.41-.62.64-.81.92-.99,1.93-.66,2.5.28.5.96.86,1.54.9.57.04,3.34-.65,4.34-.77,2.72,3.55,7.09,5.79,11.56,5.94,0,0,.14.07.39.19,1.38-3.85,5.75-8.79,9.88-11.01Z"/>
    <path fill="#1b306f" d="M142.5,141.99c-.56-2.2-1.39-4.38-2.48-6.37-.61-1.12-1.45-1.99-2.74-2.26s-2.77.12-3.73,1.1c-.48.48-.52,1.36,0,1.83s1.32.51,1.83,0c.05-.05.29-.21.06-.08.09-.05.19-.11.28-.16.2-.12-.08.02.06-.03.1-.04.19-.08.29-.11.05-.01.38-.07.14-.05.13,0,.26,0,.39,0-.18-.02.05.02.12.03.11.03.22.06.33.1-.21-.08.09.05.12.07.26.14-.12-.15.09.06.06.07.13.13.19.2.09.1-.08-.15.03.05.21.4.45.79.65,1.2s.41.85.59,1.28c.04.08.03.08,0,0l.05.12c.05.12.1.24.15.37.09.22.17.45.26.68.32.87.6,1.76.84,2.67.17.66.94,1.12,1.59.9s1.09-.89.9-1.59h0Z"/>
    <path fill="#1b306f" d="M134.9,134.95c-1.06-2.14-3.37-3.37-5.65-3.73s-5.31-.56-7.28.95c-.55.42-.85,1.12-.46,1.77.32.55,1.21.89,1.77.46.65-.5,1.44-.76,2.26-.79,1-.04,2.04-.04,3.03.1,1.67.24,3.32.97,4.11,2.54.31.63,1.2.8,1.77.46.64-.37.78-1.14.46-1.77h0Z"/>
    <path fill="#1b306f" d="M126.93,133.46c-2.13-.75-4.47-1.22-6.69-.58-1.13.32-2.22.9-3.28,1.4-1.19.56-2.22,1.5-2.2,2.92.02,1.67,2.61,1.67,2.59,0,0-.07.04-.19,0-.1-.05.11.05-.08.06-.09,0,0,.21-.17.23-.18.42-.26.9-.44,1.35-.65.87-.4,1.45-.71,2.37-.91.4-.09.81-.12,1.22-.11.25,0,.49.03.74.06.13.01.27.03.4.04.04,0,.23.03.08.01.84.13,1.64.4,2.43.68.66.23,1.42-.26,1.59-.9.2-.72-.24-1.36-.9-1.59h0Z"/>
    <path fill="#1b306f" d="M122.42,136.01c-2.6-.28-5.41-.2-7.81.94-1.08.51-2.21,1.33-2.73,2.45-.62,1.36-.3,2.79.89,3.69.56.43,1.45.09,1.77-.46.39-.67.09-1.34-.46-1.77.05.04.09.05.12.1-.11-.19,0,.03-.04-.1-.05-.19,0,.17,0-.04,0-.02,0-.27,0-.15,0,.15.06-.18,0-.04.04-.09.09-.17.14-.26.08-.13.11-.16.26-.31.55-.55,1.35-.94,2.12-1.17,1.81-.56,3.83-.52,5.75-.31.7.08,1.3-.65,1.3-1.3,0-.76-.6-1.22-1.3-1.3h0Z"/>
    <path fill="#1b306f" d="M115.66,140.36c-1,.53-1.94,1.23-2.69,2.09-.82.94-1.45,2.24-1.1,3.52s1.69,2.09,2.94,2.1c.72,0,1.48-.21,2.18-.35.44-.09.89-.19,1.33-.27.2-.04.4-.08.61-.12.09-.02.18-.03.27-.05.03,0,.07,0,.1-.02.2-.03-.37.05-.17.02.36-.04.65-.12.92-.38.22-.22.39-.59.38-.92-.03-.63-.57-1.38-1.3-1.3-1.38.17-2.72.55-4.09.77-.06,0-.12.02-.18.03.47-.09.24-.03.13-.02-.07,0-.33-.01-.13.02.23.04-.1-.03-.15-.04-.04-.01-.13-.06-.16-.05.01,0,.23.12.11.04-.04-.02-.21-.15-.26-.15.11,0,.18.17.06.05-.05-.05-.1-.1-.15-.15-.1-.09.08.09.08.1,0,.01-.06-.11-.07-.12.02.02.1.32.06.14,0-.03-.01-.07-.02-.09-.06-.14,0,.31.02.15,0-.03,0-.07,0-.1,0-.05,0-.09,0-.14,0-.18,0,.09-.02.12.04-.06.05-.24.07-.31.01-.04.03-.08.04-.12.05-.16-.11.22-.03.07.05-.1.1-.19.15-.29.03-.06.07-.11.1-.16.07-.12.04-.07-.02.02.29-.43.73-.79,1.12-1.12.02-.02.15-.12.01-.01-.16.12.06-.04.09-.06.1-.07.2-.14.31-.21.25-.16.5-.31.77-.45.6-.32.83-1.2.46-1.77-.39-.61-1.13-.81-1.77-.46h0Z"/>
    <path fill="#1b306f" d="M118.21,146.94c2.97,3.81,7.65,6.1,12.45,6.29,1.67.06,1.66-2.53,0-2.59-4.17-.16-8.06-2.25-10.62-5.53-.43-.55-1.38-.45-1.83,0-.54.54-.43,1.28,0,1.83h0Z"/>
    <path fill="#1b306f" d="M141.98,140.83c4.03-1.09,8.06-2.17,12.09-3.26,1.61-.44.92-2.94-.69-2.5-4.03,1.09-8.06,2.18-12.09,3.26-1.61.43-.93,2.93.69,2.5h0Z"/>
    <path fill="#f5eda2" d="M216.89,92.05c6.06,2.83,11.04,8.56,13.48,15.47,1.24,3.5,1.83,7.23,2.32,10.95.42,3.2.73,12.68.74,22.34-8.27,2.44-18.1,5.34-25.43,7.47-3.21.93-5.5,3.76-5.75,7.1-.07.86-.13,1.71-.19,2.55-9.06,2.76-20,6.07-25.54,7.73-1.88,1.9-4.23,3.07-6.02,3.64-2.54.81-6.19,1.14-11.82-.38-2.69-.86-5.29-2.09-8.02-3.6-7.96-4.4-17.04-9.99-19.63-13.14,1.52-4.33,6.87-10.07,11.39-11.76,2.13.93,24.39,7.07,18.09,5.2.62-1.7,1-3.06,1.54-5.15,2.39-9.39,4.79-21.43,7.83-28.12,2.6-5.72,8.51-10.65,13.51-13.71.87-.53,2.25-1.26,3.2-1.91l30.31-4.68Z"/>
    <path fill="#1b306f" d="M214.64,92.45c-1.07-.87-2.19-1.69-3.54-2.03-.99-.25-1.99-.21-3-.18-2.56.09-5.13.22-7.68.45-2.88.27-5.64.69-8.36,1.73s-5.26,2.34-7.73,3.8c-1.43.85-.13,3.09,1.31,2.24,2.16-1.28,4.4-2.46,6.73-3.39,2.49-.99,4.99-1.49,7.65-1.75,2.38-.23,4.77-.37,7.17-.46.78-.03,1.58-.1,2.36-.06,1.27.05,2.3.69,3.26,1.48,1.28,1.05,3.12-.78,1.83-1.83h0Z"/>
    <path fill="#1b306f" d="M185.93,95.62c-3.05,2.03-6.19,3.73-9.02,6.09s-5.52,5.2-7.37,8.47c-1.66,2.92-2.66,6.24-3.6,9.45-1.09,3.75-2.01,7.55-2.92,11.35-1.05,4.39-1.95,8.87-3.35,13.17-.52,1.59,1.98,2.27,2.5.69,2.37-7.25,3.63-14.88,5.64-22.24.86-3.14,1.76-6.32,3.07-9.31,1.47-3.32,3.84-6.12,6.51-8.55,1.51-1.38,3.13-2.64,4.82-3.78s3.39-2,5.03-3.09c1.38-.92.09-3.16-1.31-2.24h0Z"/>
    <path fill="#1b306f" d="M216.1,93.1c5.6,2.63,9.9,7.42,12.36,13.06,2.1,4.81,2.89,10.26,3.22,15.47.57,9.15.57,18.37.38,27.53-.09,4.52-.19,9.08-.77,13.56-.22,1.65,2.38,1.63,2.59,0,.54-4.08.64-8.23.75-12.35.13-5.25.14-10.5.07-15.75-.13-9.42.07-19.68-3.48-28.57-2.6-6.5-7.4-12.2-13.8-15.2-1.5-.7-2.82,1.53-1.31,2.24h0Z"/>
    <path fill="#595757" d="M205.37,25.34c-.82-.22-1.58-.39-2.29-.53-4.9-.98-9.74-.54-14.16.64-9.27,2.48-13.89,8.56-14.71,9.93-1.07,1.8-1.86,3.33-2.43,5.15,1.35,5.52,4.82,10.49,9.52,13.68,0,0,2.84,0,5.13,0,1.88,2.27,4.02,4.29,6.64,5.72.5-.31,1.06-.53,1.73-.62,1.18-.15,2.28.13,3.06.86,1.16,1.08,1.51,3.09,1.23,4.68-.59,3.43-2.39,5.77-5.24,7.2,1.14,4.88,1.74,6.96,1.41,11.07-.2,2.5-3.64,9.49-7.83,10.75,3.36,2.57,8.53,4.11,13.44,4.55,7.7.69,15-.52,18.52-2.79,2.87-1.85,4.85-3.28,6.1-6.5.66-1.71.3-4.47.06-6.06-.91-5.82-2.54-8.95-.58-18.61.36-1.67.77-4.89,1.15-9.2.27-5.8-1.49-11.81-3.95-16.08-5.14-8.92-11.3-12.18-16.06-13.61-.26-.08-.51-.15-.76-.22Z"/>
    <path fill="#1b306f" d="M193.17,61.46c1.17-.99,3.2-1.41,4.16.08.88,1.37.59,3.15.12,4.61-.99,3.05-3.57,4.79-6.55,5.63-1.6.45-.92,2.95.69,2.5,3.21-.9,6.19-2.74,7.7-5.82.75-1.53,1.28-3.33,1.18-5.06-.11-1.9-.89-3.94-2.68-4.86-2.22-1.13-4.65-.45-6.46,1.08-.53.45-.47,1.37,0,1.83.53.53,1.3.45,1.83,0h0Z"/>
    <path fill="#1b306f" d="M172.67,55.36c-.52,1.09-.75,3.75,1.27,4.31,2.72.43,3.39-2.72,2.73-4.36-.54-1.34-2.66-2.21-4,.06Z"/>
    <path fill="#1b306f" d="M186.4,89.09c-.53-1.57-1.15-3.14-1.91-4.62-1.03-1.99-2.78-1.36-4.62-1.37-2.14,0-4.3-.46-6.29-1.24s-3.33-2.24-4.04-4.27c-.81-2.3-.97-4.88-1.02-7.3-.04-2.15-.71-3.76-2.17-5.36-.58-.64-1.2-1.23-.55-2.08.52-.66,1.47-.9,2.14-1.38,1.43-1.04,2.32-2.56,2.93-4.19,1.58-4.22,1.07-8.84,2.13-13.16.39-1.62-2.1-2.31-2.5-.69-.98,4.03-.64,8.26-1.82,12.25-.46,1.56-1.2,3.12-2.66,3.96-1.66.96-3.34,2.16-3.1,4.36.22,1.98,2.28,2.9,2.84,4.72.3.99.16,2.14.23,3.16.08,1.26.21,2.52.42,3.76.39,2.31,1.14,4.54,2.72,6.32,1.32,1.48,3.16,2.26,5.03,2.83,2.2.67,4.63,1.06,6.93.84.58-.06.84-.27,1.16.14.12.15.19.39.27.56.53,1.12.99,2.26,1.38,3.44.53,1.57,3.03.9,2.5-.69h0Z"/>
    <path fill="none" d="M171.46,45.12c.52-4.03,1.49-6.24,3.25-9.2.8-1.34,5.33-7.3,14.41-9.73,4.33-1.16,9.08-1.59,13.87-.63,4.79.96,12.51,3.31,18.71,14.07,2.41,4.18,4.13,10.07,3.87,15.75-.48,10.28-6.08,17.27-9.82,20.8-2.43,2.29-6.8,5.29-7.37,8.63-.13.74.03,3.08.25,4.37"/>
    <path fill="#1b306f" d="M171.58,69.67c-.69.22-1.39.39-2.11.49l.34-.05c-.66.09-1.32.11-1.98.03l.34.05c-.16-.02-.32-.05-.48-.08-.66-.14-1.43.19-1.59.9-.15.65.19,1.45.9,1.59,1.76.36,3.55.1,5.25-.44.65-.2,1.13-.91.9-1.59-.21-.65-.9-1.12-1.59-.9h0Z"/>
    <path fill="#1b306f" d="M170.84,41.99c1.66,5.43,5.14,10.13,9.81,13.34.58.4,1.44.11,1.77-.46.38-.64.11-1.38-.46-1.77-4.1-2.82-7.17-7.04-8.62-11.79-.49-1.59-2.99-.91-2.5.69h0Z"/>
    <path fill="#1b306f" d="M180.46,47.96c2.99,4.65,6.13,9.38,10.86,12.43,1.4.91,2.7-1.33,1.31-2.24-4.33-2.8-7.19-7.25-9.93-11.5-.9-1.4-3.14-.1-2.24,1.31h0Z"/>
    <path fill="none" d="M195.22,72.39c.38,2.07,1.8,5.25,3.31,6.88,1.6,1.74,5.88,3.23,8.51,3.75"/>
    <path fill="#1b306f" d="M172.14,45.12c.53-3.9,1.9-7.86,4.49-10.79,2.94-3.32,6.83-5.77,11.03-7.16,9.07-2.99,19.73-1.9,27.02,4.6,4.31,3.84,7.53,9.02,9.09,14.57s1.14,11.6.05,17.35c-.91,4.77-1.37,9.37-.53,14.19.73,4.16,2.57,9.03-.06,12.84-1.41,2.04-3.91,3.72-6.16,4.67-2.77,1.17-5.89,1.62-8.87,1.81-6.77.44-14.48-.29-20.09-4.47-1.34-1-2.63,1.25-1.31,2.24,5.25,3.92,12.35,4.96,18.73,4.92,5.79-.04,11.61-.95,16.39-4.39,2.16-1.55,3.95-3.49,4.85-6.03s.32-5.28-.11-7.75c-.35-2-.84-3.98-1.09-5.99-.3-2.44-.24-4.91.07-7.34.77-6.15,2.4-12.14,1.53-18.39s-3.82-12.58-8.15-17.52c-6.86-7.82-17.26-10.74-27.38-8.95-5.97,1.05-11.66,3.71-15.96,8.04-3.45,3.48-5.38,8.05-6.03,12.87-.22,1.63,2.28,2.34,2.5.69h0Z"/>
    <path fill="#1b306f" d="M192.84,73.35c.88,3.73,1.97,7.93.65,11.52-1.07,2.88-3.27,6.73-6.38,7.75-1.58.51-.9,3.01.69,2.5,3.96-1.28,6.58-5.48,8.04-9.15,1.7-4.27.52-9.02-.49-13.3-.38-1.62-2.88-.94-2.5.69h0Z"/>
    <path fill="#1b306f" d="M71.6,174.69c14.96-4.11,29.88-8.33,44.78-12.62,3.08-.89,6.17-1.77,9.24-2.71,1.59-.48.91-2.99-.69-2.5-14.84,4.52-29.83,8.58-44.77,12.75-3.09.86-6.17,1.72-9.26,2.57-1.61.44-.92,2.94.69,2.5h0Z"/>
    <path fill="#fff" d="M200.42,180.92c.59-8.45,1.15-16.56,1.83-25.55.25-3.33,2.54-6.16,5.75-7.1,10-2.9,24.65-7.24,33.65-9.89,2.62-.77,5.2,1.31,5.02,4.03-.83,12.52-1.02,14.7-1.65,23.69l-44.61,14.82Z"/>
    <path fill="#1b306f" d="M201.71,180.92c.55-7.87,1.09-15.74,1.69-23.6.13-1.74.2-3.38,1.14-4.91.76-1.23,1.94-2.21,3.3-2.72,2.93-1.11,6.09-1.8,9.1-2.68,6.52-1.91,13.04-3.84,19.55-5.76,1.43-.42,2.87-.85,4.3-1.27s2.73-.83,3.86.34.66,3.15.56,4.65c-.11,1.66-.22,3.33-.34,4.99-.37,5.38-.77,10.76-1.15,16.14-.12,1.66,2.47,1.66,2.59,0,.37-5.21.75-10.43,1.11-15.64.12-1.76.24-3.51.36-5.27s.47-3.59-.3-5.25c-.64-1.37-1.88-2.43-3.34-2.83-1.57-.43-3.01.07-4.51.51-6.96,2.05-13.91,4.11-20.87,6.15-3.37.99-6.74,1.98-10.11,2.96s-5.83,2.68-7.1,5.91c-.78,1.99-.72,4.26-.87,6.36-.19,2.5-.37,5-.55,7.51-.34,4.8-.68,9.61-1.01,14.41-.12,1.66,2.48,1.66,2.59,0h0Z"/>
    <path fill="#1b306f" d="M161.81,144.69c-4.13-1-8.21-2.24-12.29-3.42-1.98-.58-3.98-1.14-5.94-1.8-.23-.08-.46-.19-.7-.25-.73-.18-1.32.13-1.98.44-1.52.71-2.89,1.72-4.17,2.8-2.95,2.49-5.62,5.71-6.96,9.37-.17.45.05.92.33,1.26,1.24,1.46,2.82,2.63,4.36,3.76,2.22,1.62,4.53,3.11,6.87,4.55,5.23,3.21,10.69,6.73,16.57,8.62,4.3,1.38,9.41,1.9,13.71.25,2.26-.86,4.38-2.16,6.04-3.94,1.74-1.87,2.78-4.23,3.77-6.55,2.71-6.37,4.31-13.13,5.97-19.83.4-1.62-2.1-2.31-2.5-.69-1.38,5.6-2.69,11.27-4.71,16.68-.86,2.33-1.8,4.71-3.08,6.85-1.19,1.99-3.04,3.47-5.1,4.5-3.78,1.89-8.07,1.58-12.07.61-5.64-1.38-10.89-4.87-15.81-7.84-2.54-1.53-5.07-3.11-7.49-4.83-1.66-1.17-3.37-2.41-4.69-3.97l.33,1.26c1.1-3,3.38-5.63,5.73-7.74,1.19-1.07,2.49-2.02,3.92-2.74.34-.17.81-.24.21-.35.09.02.19.07.27.1.27.11.56.19.83.28,4.25,1.39,8.58,2.55,12.89,3.75,1.66.46,3.32.95,5,1.35s2.31-2.11.69-2.5h0Z"/>
    <path fill="#e0e0df" d="M31.6,113.87c30.19-6.97,84.03-19.24,107.51-24.58,1.14-.26,1.96-1.28,1.96-2.45,0-23.39,0-46.79,0-70.18,0-1.55-1.38-2.73-2.91-2.48-25.25,4.1-80.83,13.37-107.54,17.83-1.21.2-2.09,1.25-2.09,2.48,0,9.97,0,52.5,0,76.94,0,1.62,1.5,2.81,3.08,2.45Z"/>
    <path fill="#1b306f" d="M31.94,115.11c12.12-2.8,24.25-5.58,36.38-8.35,13.37-3.06,26.74-6.11,40.1-9.16,5.85-1.33,11.69-2.67,17.54-4,2.52-.57,5.04-1.15,7.57-1.72,1.09-.25,2.17-.49,3.26-.74s2.29-.39,3.3-.84c1.64-.73,2.25-2.27,2.26-3.97.02-2.32,0-4.65,0-6.97,0-4.65,0-9.29,0-13.94,0-9.21,0-18.42,0-27.63,0-4.65,0-9.29,0-13.94,0-2.32.05-4.65,0-6.97-.03-1.51-.65-2.87-2.03-3.62-1.25-.67-2.58-.35-3.89-.14-1.13.18-2.27.37-3.4.56-2.54.41-5.07.83-7.61,1.25-12.41,2.04-24.82,4.1-37.24,6.16-12.9,2.14-25.79,4.29-38.68,6.44-5.39.9-10.78,1.8-16.17,2.7-2.56.43-5.77.64-6.09,3.91-.14,1.48-.02,3.03-.02,4.51,0,10.86,0,21.71,0,32.57,0,12.81,0,25.63,0,38.44,0,1.36-.13,2.74.69,3.92.93,1.35,2.48,1.78,4.03,1.52,1.64-.27.94-2.76-.69-2.5-1.77.29-1.44-2.04-1.44-3.09,0-1.33,0-2.65,0-3.98,0-2.98,0-5.95,0-8.93,0-6.31,0-12.61,0-18.92,0-11.38,0-22.77,0-34.15,0-1.88,0-3.75,0-5.63,0-1.07-.46-3.78.55-4.46.8-.54,2.35-.5,3.29-.66,1.18-.2,2.35-.39,3.53-.59,2.53-.42,5.06-.84,7.59-1.27,12.12-2.02,24.23-4.04,36.35-6.05,12.32-2.05,24.64-4.09,36.96-6.12,5.13-.85,10.26-1.69,15.39-2.53,1.06-.17,2.13-.35,3.19-.52.98-.16,2.54-.72,3.03.51.32.82.08,2.05.08,2.92,0,1.16,0,2.32,0,3.48,0,2.16,0,4.31,0,6.47,0,17.75,0,35.51,0,53.26,0,1,0,1.99,0,2.99,0,.87.25,2.08-.67,2.58-.84.46-2.18.53-3.11.74-2.22.51-4.44,1.01-6.66,1.52-5.36,1.22-10.72,2.44-16.08,3.66-12.6,2.87-25.19,5.74-37.79,8.62s-24.47,5.6-36.7,8.41c-2.5.58-5,1.15-7.5,1.73-1.62.38-.94,2.87.69,2.5Z"/>
    <path fill="#fff" d="M50.24,52.13c.28-.33.49-.84.47-1.26-.02-.44-.17-.87-.49-1.14-.31-.26-.73-.43-1.16-.36-1.17.18-2.32.35-3.46.53-.42.06-.81.25-1.11.59-.27.31-.47.81-.45,1.23.02.44.16.89.47,1.17.3.27.7.47,1.12.4,1.14-.17,2.29-.35,3.46-.53.43-.07.84-.27,1.15-.63Z"/>
    <path fill="#fff" d="M55.53,51.98c.99-.1,1.94-1.11,1.89-2.13-.05-1.02-.86-1.77-1.92-1.66-.99.11-1.92,1.04-1.87,2.06.05,1.02.84,1.84,1.9,1.73Z"/>
    <path fill="#fff" d="M62.83,50.64c1.47-.23,2.94-.46,4.43-.69.47-.07.92-.28,1.25-.64.31-.33.54-.85.51-1.27-.02-.44-.18-.87-.53-1.13-.34-.25-.79-.42-1.26-.34-1.49.23-2.97.46-4.43.69-.46.07-.9.27-1.23.62-.3.32-.52.82-.5,1.24.02.43.17.88.52,1.15.33.27.77.45,1.24.38Z"/>
    <path fill="#fff" d="M76.69,48.36c.22-.09.42-.23.58-.42.18-.18.3-.37.37-.59.11-.22.16-.44.15-.67-.02-.44-.18-.87-.53-1.13-.34-.25-.8-.42-1.28-.34-.73.12-1.47.23-2.2.34-.25.02-.48.09-.69.22-.22.09-.41.23-.58.41-.17.17-.3.36-.37.58-.11.21-.16.43-.15.66.02.43.18.88.53,1.15.34.26.79.44,1.27.37.73-.11,1.46-.23,2.2-.34.25-.02.48-.09.69-.22Z"/>
    <path fill="#fff" d="M83.68,48.14c.26.56.66,1.01,1.07,1.48.27.31.87.43,1.28.39.44-.05.97-.3,1.28-.66.32-.38.55-.85.53-1.32-.02-.5-.22-.83-.53-1.18-.15-.17.12.13.13.15-.03-.05-.08-.1-.12-.14-.07-.08-.13-.17-.2-.26-.08-.11-.14-.23-.2-.35-.07-.2-.13-.4-.17-.61-.04-.38-.04-.76,0-1.14.04-.2.1-.4.17-.59.12-.24.24-.47.38-.69.51-.79.19-1.85-.65-2.15-.89-.31-1.93.04-2.48.86-.81,1.22-1.18,2.6-1.05,4.01.07.8.24,1.49.58,2.21Z"/>
    <path fill="#fff" d="M40.32,54.28c-.03-.05-.07-.1-.1-.15-.06-.09-.11-.18-.16-.27-.06-.11-.11-.24-.17-.36-.06-.2-.11-.41-.15-.62-.04-.38-.04-.76-.02-1.14.03-.2.08-.39.14-.58.09-.23.19-.46.31-.67.42-.76.14-1.79-.55-2.1-.74-.32-1.58-.02-2.01.75-.64,1.15-.92,2.49-.82,3.91.06.8.2,1.52.47,2.27.21.58.54,1.06.87,1.56.22.33.71.48,1.05.45.36-.03.8-.28,1.05-.64.26-.38.45-.85.43-1.33-.02-.51-.19-.86-.45-1.22-.13-.17.1.13.11.15Z"/>
    <path fill="#fff" d="M93.11,42.49c.07.08.13.16.19.25.07.1.13.22.19.33.09.22.15.45.2.69.04.37.04.74,0,1.12-.04.17-.08.33-.14.5-.12.26-.26.52-.41.78-.51.83-.19,2,.64,2.35.89.37,1.9,0,2.44-.9.75-1.26,1.12-2.58,1.06-3.93-.03-.69-.13-1.39-.38-1.99-.31-.72-.71-1.26-1.24-1.81-.26-.27-.86-.37-1.26-.33-.44.05-.96.29-1.27.62-.31.34-.55.78-.53,1.21.02.46.22.78.53,1.11-.37-.39-.09-.09-.01,0Z"/>
    <path fill="#fff" d="M116.11,53.71c-.03-.06-.07-.11-.11-.16-.06-.09-.12-.19-.17-.28-.07-.12-.12-.25-.18-.38-.07-.22-.12-.44-.15-.67-.03-.41-.04-.83,0-1.24.04-.22.09-.44.16-.65.1-.26.21-.51.34-.75.46-.86.18-2.07-.57-2.44-.8-.39-1.75-.03-2.24.87-.74,1.36-1.09,2.89-.98,4.43.06.87.21,1.63.52,2.41.24.6.6,1.09.97,1.59.24.33.79.47,1.16.43.4-.04.88-.3,1.15-.67.28-.39.5-.88.48-1.38-.02-.53-.19-.89-.47-1.28-.13-.18.1.14.11.16Z"/>
    <path fill="#fff" d="M122.92,48.52c-.26-.8-.61-1.42-1.06-2.06-.23-.32-.74-.46-1.09-.43-.38.04-.84.28-1.11.64-.28.37-.48.85-.47,1.33.02.51.19.87.46,1.25-.32-.45-.08-.11-.01,0,.06.09.11.19.16.28.06.12.11.24.16.37.07.24.13.5.17.75.03.38.03.76,0,1.14-.04.23-.09.45-.16.67-.1.25-.21.51-.33.75-.45.87-.17,2.11.56,2.5.77.41,1.66.04,2.12-.88.65-1.3.97-2.68.92-4.13-.02-.74-.11-1.5-.33-2.18Z"/>
    <path fill="#fff" d="M104.63,47.37c.4-.11.84-.56,1.03-.93.22-.41.31-.98.18-1.39-.21-.66-.68-1-1.26-1.07,0,0,0,0,0,0,0-.01,0-.02-.01-.04-.03-.08-.06-.17-.08-.25-.06-.19-.12-.37-.19-.55-.09-.22-.19-.44-.3-.64.1-.24.18-.48.24-.72.07-.3.14-.59.22-.88.66-.31,1.19-1.05,1.16-1.71-.04-.95-.75-1.5-1.73-1.45-1.4.07-2.42,1.35-2.79,2.56-.11.37-.19.74-.28,1.11-.67.37-1.06,1.2-.97,1.88.09.66.53,1.08,1.11,1.24.04.09.08.2.02,0,0,0,0,0,0,0,.02.06.04.11.04.13.03.08.06.17.09.25.07.2.14.41.22.6.23.55.5,1.06.97,1.44.32.26.67.44,1.08.53.44.09.82,0,1.26-.12ZM104.15,43.97s0,0,0,0c0,0,0,0,0,0ZM100.95,44.46s0-.02,0-.03c0,0,0,.02,0,.03,0,0,0,0,0,0ZM101.13,44.55s0,0-.01,0c.15.03.29.06.45.06-.16.03-.3,0-.44-.05Z"/>
    <path fill="#fff" d="M60.41,58.77c-1.16.19-2.31.37-3.45.56-.45.07-.88.29-1.2.7-.29.37-.51.95-.49,1.45.02.51.17,1.03.51,1.36.32.32.75.54,1.2.46,1.14-.19,2.29-.38,3.45-.58.46-.08.89-.3,1.22-.72.3-.38.52-.97.5-1.46-.02-.51-.17-1.02-.52-1.33-.33-.3-.77-.51-1.23-.44Z"/>
    <path fill="#fff" d="M70.89,57.71c-.12-.09-.24-.17-.36-.26-.28-.14-.59-.21-.9-.16-.54.07-1.11.18-1.66.27-.24.02-.47.1-.68.24-.22.1-.41.25-.57.46-.17.19-.29.41-.36.66-.11.24-.16.5-.15.77.02.17.04.34.07.51.09.32.24.6.46.82.12.09.24.18.36.27.28.15.58.21.89.17.55-.09,1.1-.18,1.66-.28.24-.02.47-.1.69-.25.22-.1.41-.26.57-.47.17-.2.3-.42.37-.67.11-.25.16-.5.15-.77-.02-.17-.04-.34-.07-.51-.09-.32-.24-.59-.46-.8Z"/>
    <path fill="#fff" d="M86.87,54.52c-2.39.38-4.79.77-7.18,1.15-.94.15-1.85,1.04-1.8,2.11.05,1,.8,1.91,1.81,1.74,2.39-.4,4.79-.79,7.18-1.18.94-.15,1.84-1.06,1.8-2.12-.04-.99-.79-1.86-1.8-1.7Z"/>
    <path fill="#fff" d="M97.92,54.73c-.02-.16-.04-.33-.06-.49-.08-.31-.23-.57-.45-.78-.12-.08-.24-.17-.36-.25-.28-.14-.58-.2-.9-.16-.39.05-.81.13-1.21.19-.25.02-.47.09-.69.23-.22.1-.41.25-.57.45-.17.19-.3.4-.37.64-.11.24-.16.48-.15.74.02.17.04.33.06.5.08.31.24.58.46.79.12.09.24.17.36.26.28.14.58.2.9.16.4-.07.81-.13,1.21-.2.24-.02.47-.1.68-.24.22-.1.41-.25.57-.46.17-.19.29-.41.37-.65.11-.24.16-.49.15-.74Z"/>
    <path fill="#fff" d="M108.23,51.14c-1.22.19-2.45.38-3.69.58-.46.07-.9.28-1.23.67-.3.35-.53.91-.51,1.37.02.48.17.97.51,1.28.33.29.76.5,1.22.42,1.24-.2,2.47-.4,3.69-.59.45-.07.88-.29,1.2-.68.29-.36.51-.91.5-1.37-.02-.48-.16-.96-.49-1.26-.32-.29-.74-.49-1.2-.42Z"/>
    <path fill="#fff" d="M49.1,79.71c-.95.12-1.84,1.38-1.79,2.71.05,1.34.8,2.38,1.82,2.24.95-.13,1.87-1.4,1.81-2.73-.05-1.33-.83-2.36-1.85-2.22Z"/>
    <path fill="#fff" d="M58.43,78.85c-.12-.1-.23-.19-.35-.29-.27-.16-.57-.23-.86-.18-.45.07-.92.18-1.38.27-.23.02-.45.11-.65.27-.21.12-.39.29-.54.52-.16.22-.28.47-.34.75-.1.27-.15.56-.14.86.02.19.04.38.06.57.08.36.23.66.44.91.11.1.23.2.34.29.26.16.55.22.85.18.46-.09.92-.19,1.38-.28.23-.02.45-.12.65-.28.21-.12.39-.29.55-.53.17-.22.28-.47.35-.75.11-.27.15-.56.14-.86-.02-.19-.04-.38-.06-.57-.08-.36-.23-.65-.45-.9Z"/>
    <path fill="#fff" d="M67.86,76.31c-1.33.26-2.64.51-3.95.77-.46.09-.9.34-1.23.79-.3.41-.52,1.06-.5,1.59.02.55.17,1.11.52,1.45.33.33.77.55,1.24.46,1.31-.27,2.63-.53,3.95-.8.47-.09.91-.35,1.25-.8.31-.41.53-1.05.51-1.58-.02-.55-.18-1.09-.53-1.43-.34-.32-.78-.54-1.25-.45Z"/>
    <path fill="#fff" d="M84.39,73.14c-2.72.51-5.44,1.03-8.14,1.55-.93.18-1.83,1.17-1.78,2.34.05,1.09.8,2.05,1.8,1.85,2.71-.54,5.42-1.08,8.14-1.61.94-.18,1.84-1.17,1.79-2.31-.04-1.06-.79-2.01-1.8-1.82Z"/>
    <path fill="#fff" d="M99.61,70.05c-1.03.13-2.02,1.29-1.97,2.5.05,1.21.87,2.14,1.97,1.99,1.03-.14,2.01-1.31,1.96-2.51-.05-1.21-.85-2.12-1.95-1.98Z"/>
    <path fill="#fff" d="M112.74,67.65c-.97.12-1.91,1.24-1.87,2.42.04,1.18.82,2.09,1.86,1.95.97-.13,1.89-1.25,1.85-2.42-.04-1.17-.8-2.08-1.84-1.95Z"/>
    <path fill="#fff" d="M118.96,66.53c-.93.11-1.83,1.21-1.79,2.37.04,1.17.78,2.06,1.78,1.94.93-.12,1.81-1.22,1.77-2.37-.04-1.16-.76-2.06-1.75-1.94Z"/>
    <path fill="#fff" d="M108.38,69.32c-.3-.3-.75-.51-1.2-.42-.6.11-1.21.22-1.82.33-.24.02-.46.1-.66.25-.21.11-.4.27-.56.48-.17.2-.29.43-.36.68-.11.25-.16.51-.15.78.02.17.04.35.06.52.08.33.23.61.44.82.31.3.76.51,1.22.42.61-.12,1.21-.23,1.82-.35.23-.02.45-.11.66-.26.21-.11.39-.27.55-.48.17-.2.28-.43.35-.68.11-.25.16-.51.15-.78-.02-.17-.04-.34-.06-.52-.08-.32-.22-.6-.43-.81Z"/>
    <path fill="#fff" d="M94.41,75.81c-.05-.05-.09-.12-.13-.18-.06-.09-.13-.19-.19-.29-.05-.08-.15-.22-.22-.36,0,0,0-.04-.03-.12-.02-.06-.04-.12-.05-.18-.03-.12-.07-.25-.09-.37,0-.03-.03-.11-.05-.19,0-.02,0-.04,0-.08,0-.1-.02-.2-.02-.31-.02-.35-.03-.71,0-1.07,0-.08.01-.16.02-.24,0-.01,0-.02,0-.03.03-.11.06-.23.06-.26.03-.14.07-.28.11-.43,0-.03.02-.06.03-.1.13-.31.26-.61.42-.9.5-.96.19-2.28-.64-2.67-.88-.41-1.91,0-2.44,1.03-.86,1.63-1.25,3.46-1.11,5.27.07,1,.24,1.88.6,2.76.28.69.69,1.24,1.12,1.8.26.34.86.47,1.26.41.44-.06.96-.36,1.26-.78.31-.43.54-.97.52-1.51-.02-.53-.19-.91-.47-1.29.03.04.05.07.06.08ZM93.63,72.47c0,.08-.01.16-.01.16-.01-.01,0-.08.01-.16ZM93.62,73.87s0,.09.01.15c-.01-.06-.02-.11-.01-.15ZM93.85,74.92c-.03-.06-.05-.12-.06-.17.02.05.04.12.06.17Z"/>
    <path fill="#fff" d="M125.74,62.71c-.22-.33-.71-.48-1.05-.44-.37.04-.81.29-1.07.67-.27.39-.47.89-.45,1.39.02.53.18.9.44,1.29-.03-.04-.2-.32-.09-.13.04.07.08.13.12.19.06.1.12.21.17.32.06.12.11.24.16.37,0,0,0,0,0,0,.07.27.14.53.18.81,0,.03,0,.07.01.1,0,.18.02.35.02.53,0,.28,0,.56-.02.83,0,.04,0,.07,0,.09-.02.14-.05.27-.08.41-.02.09-.04.17-.07.25-.01.03-.02.06-.03.09-.1.27-.22.53-.34.78-.43.9-.16,2.16.54,2.54.75.4,1.6,0,2.04-.95.67-1.43.99-2.94.94-4.52-.03-.81-.11-1.65-.34-2.39-.26-.87-.62-1.54-1.08-2.25ZM124,66.43c.02.05.04.13.05.12,0,0-.03-.06-.05-.12ZM124.18,68.72s0,.03,0,.04c-.01.17,0,.07,0-.04ZM124.19,68.6s0-.04,0-.05c0,0,0,.03,0,.05Z"/>
    <path fill="#fff" d="M130.61,64.8c.22.15.45.21.7.18.19-.01.37-.08.53-.22.17-.09.32-.24.44-.43.13-.18.23-.39.28-.63.08-.23.12-.47.12-.73-.02-.16-.03-.33-.05-.49-.06-.31-.18-.57-.35-.79-.09-.09-.18-.18-.28-.26-.21-.15-.44-.21-.69-.19-.19,0-.37.08-.53.21-.17.09-.32.24-.45.43-.14.18-.23.39-.29.63-.09.23-.13.48-.12.73.02.16.03.33.05.49.07.31.19.57.36.79.09.09.19.17.28.26Z"/>
    <path fill="#fff" d="M132.85,67.78c0-.26-.03-.49-.12-.71-.05-.23-.15-.41-.28-.57-.12-.17-.27-.28-.44-.34-.16-.1-.34-.13-.53-.1-.12.04-.24.07-.37.11-.23.11-.44.3-.61.55-.07.13-.15.27-.22.4-.13.31-.19.63-.19.97.02.61.04,1.22.07,1.83,0,.26.03.5.12.71.06.23.15.42.29.57.13.17.28.28.45.33.17.1.34.13.53.1.12-.04.24-.07.37-.11.23-.12.43-.3.6-.55.07-.13.14-.27.21-.4.12-.31.19-.63.18-.96-.01-.59-.04-1.21-.07-1.82Z"/>
    <polygon fill="#6aa3d2" stroke="#1b306f" stroke-linejoin="round" stroke-width="2.5" points="112.52 81.28 87.36 61.43 103.3 31.77 97.51 28.65 82.11 57.29 62.47 41.8 58.39 46.97 78.95 63.18 61.04 96.48 66.84 99.6 84.19 67.32 108.45 86.45 112.52 81.28"/>
    <rect fill="none" width="266.89" height="194.8"/>
  </g>
</svg>